<?xml version="1.0" encoding="utf-8"?>
<svg width="292px" height="292px" viewBox="0 0 292 292" version="1.1" xmlns:xlink="http://www.w3.org/1999/xlink" xmlns="http://www.w3.org/2000/svg">
  <path d="M0 146C0 65.3664 65.3664 0 146 0C226.634 0 292 65.3664 292 146C292 226.634 226.634 292 146 292C65.3664 292 0 226.634 0 146Z" id="Ellipse" fill="#585858" fill-rule="evenodd" stroke="none" />
  <g id="flying-bird-Copy" transform="translate(35.626953 54.95111)">
    <path d="M9.95745 81.0426C6.6383 82.1489 3.31915 82.9787 0 83.8085C3.04255 84.9149 6.08511 86.0213 9.12766 87.1277C24.8936 94.3192 31.5319 112.851 39.5532 117.83C43.7021 120.043 43.1489 117.83 48.6809 122.255C68.8723 138.021 104.83 134.979 108.702 139.404C141.34 175.362 185.043 185.043 197.213 181.447C186.149 180.34 161.532 173.702 155.723 169C162.085 172.319 198.319 182.277 208.553 179.234C197.489 178.404 161.809 167.34 160.979 164.574C165.681 166.787 199.702 177.851 215.191 175.085C209.106 173.702 175.362 168.447 166.234 161.532C173.702 164.021 201.362 173.426 221 171.213C166.234 160.149 162.915 159.043 115.894 120.872C118.66 119.489 118.936 119.213 121.702 118.66C119.766 117 118.106 116.17 116.723 115.34C119.489 114.234 121.979 112.021 124.745 112.021C123.362 110.638 120.043 110.085 118.383 109.255C121.426 108.149 124.468 105.66 127.511 106.489C126.128 104 122.255 103.447 120.596 102.617C123.362 102.064 127.234 99.2979 130 100.128C127.511 97.0851 122.255 97.6383 119.766 96.8085C122.809 96.2553 128.34 92.6596 131.66 92.6596C129.723 89.8936 123.915 89.3404 122.255 87.9575C125.298 87.6809 129.17 84.3617 133.319 85.1915C129.447 81.5958 125.298 82.4255 123.085 81.5958C126.404 80.4894 129.447 76.8936 134.979 77.7234C130 73.8511 123.915 76.0638 120.872 76.0638C128.894 71.6383 129.17 70.2553 136.362 69.9787C131.66 67.4894 126.128 65.8298 121.979 66.383C127.234 63.8936 134.149 66.383 138.298 57.5319C133.043 61.1277 127.511 57.5319 122.809 59.1915C129.17 51.7234 136.638 56.4255 138.851 45.0851C134.426 49.7872 129.723 47.2979 125.021 50.3404C128.894 44.5319 136.085 43.7021 137.468 36.5106C133.043 41.4894 127.511 40.6596 121.426 45.9149C125.021 37.0638 134.702 35.9575 135.255 25.4468C132.213 31.5319 125.298 31.8085 118.936 38.7234C121.426 30.1489 131.106 27.1064 130 16.5957C126.957 23.7872 120.872 24.3404 116.447 30.1489C118.106 22.1277 125.574 17.7021 124.191 6.6383C120.872 14.9362 115.064 17.9787 109.809 23.234C112.021 17.7021 114.511 8.85106 111.468 2.21277C111.745 12.1702 104.553 16.3192 101.234 26.8298C101.234 16.3192 101.511 6.6383 95.9787 0C98.7447 14.1064 93.2128 22.9574 91.8298 32.9149C92.383 40.383 83.2553 45.6383 78 49.2341C65.2766 60.5745 77.1702 67.4894 73.2979 78.2766C70.8085 85.1915 65 92.9362 58.3617 91.5532C43.4255 89.0638 39.5532 94.0426 27.6596 79.9362C34.0213 79.9362 40.9362 78.8298 41.766 73.5745C28.766 79.383 16.5957 70.2553 9.95745 81.0426L9.95745 81.0426Z" id="Shape" fill="#FFFFFF" fill-rule="evenodd" stroke="none" />
    <path d="M0 75.7872C12.4468 54.766 -3.04255 48.9575 1.65957 39C2.76596 36.234 15.2128 27.9362 12.1702 20.1915C9.40425 12.4468 10.5106 5.25532 5.53191 0C13.2766 1.93617 14.383 9.40426 16.3191 16.5957C15.2128 11.3404 17.1489 5.80851 14.9362 1.38298C22.1277 6.91489 19.0851 14.1064 20.4681 17.7021C21.2979 11.8936 22.1277 7.46809 21.2979 3.31915C26 8.02128 24.8936 15.2128 24.8936 19.6383C26 11.617 28.2128 9.68085 26.8298 5.25532C31.8085 9.12766 29.5957 14.1064 29.0425 19.0851C27.383 27.9362 22.9574 29.0426 16.0426 34.0213C2.21277 45.0851 13.8298 55.0426 10.7872 63.8936C9.12766 68.3192 5.25532 74.9575 0 75.7872L0 75.7872Z" transform="translate(60.574463 13.553223)" id="Shape" fill="#FFFFFF" fill-rule="evenodd" stroke="none" />
  </g>
</svg>