<?xml version="1.0" encoding="utf-8"?>
<svg width="692px" height="200px" viewBox="0 0 692 200" version="1.1" xmlns:xlink="http://www.w3.org/1999/xlink" xmlns="http://www.w3.org/2000/svg">
  <g id="Falconry" fill="#777C84" transform="translate(199.29996 22.800049)">
    <path d="M161.943 131.643Q160.85 131.916 159.106 132.087Q157.363 132.258 155.518 132.258Q149.775 132.258 146.87 130.002Q143.965 127.746 143.965 122.893Q143.965 120.842 144.512 118.107L162.49 32.248L173.086 32.248L155.723 115.305Q155.107 118.381 155.107 119.748Q155.107 121.457 156.064 122.243Q157.021 123.029 159.277 123.029Q161.533 123.029 163.789 122.619L161.943 131.643ZM24.1309 39.7676L5.12695 131.232L16.2695 131.232L24.9512 89.3965L60.7715 89.3965L62.8223 79.3477L27.0703 79.3477L33.1543 49.8164L73.3496 49.8164L75.4688 39.7676L24.1309 39.7676ZM106.367 126.345Q109.033 123.986 111.357 120.568L111.631 120.568Q111.494 126.926 114.023 129.592Q116.553 132.258 122.227 132.258Q125.713 132.258 128.584 131.643L130.43 122.893Q127.832 123.303 125.918 123.303Q123.594 123.303 122.671 122.551Q121.748 121.799 121.748 120.158Q121.748 118.859 122.227 116.262L132.686 66.291L124.072 66.291L120.928 72.7852L120.654 72.7852Q118.535 68.8887 114.57 66.7354Q110.605 64.582 105.41 64.582Q100.146 64.582 95.7031 66.4961Q91.2598 68.4102 87.6367 71.7598Q84.0137 75.1094 81.2109 79.5869Q78.4082 84.0645 76.5283 89.2598Q74.6484 94.4551 73.6914 100.026Q72.7344 105.598 72.7344 111.135Q72.7344 116.057 73.8965 120.09Q75.0586 124.123 77.3145 126.994Q79.5703 129.865 82.8516 131.403Q86.1328 132.941 90.3711 132.941Q92.832 132.941 95.5322 132.292Q98.2324 131.643 100.967 130.173Q103.701 128.703 106.367 126.345ZM220.698 74.7676Q224.629 75.7246 227.91 77.2285L229.756 68.2051Q228.457 67.5898 226.577 66.9404Q224.697 66.291 222.544 65.7783Q220.391 65.2656 217.998 64.9238Q215.605 64.582 213.145 64.582Q206.855 64.582 201.66 66.5303Q196.465 68.4785 192.466 71.7598Q188.467 75.041 185.596 79.3818Q182.725 83.7227 180.845 88.5762Q178.965 93.4297 178.076 98.3516Q177.188 103.273 177.188 107.854Q177.188 114.621 179.17 119.372Q181.152 124.123 184.536 127.165Q187.92 130.207 192.363 131.574Q196.807 132.941 201.729 132.941Q204.189 132.941 206.616 132.634Q209.043 132.326 211.299 131.813Q213.555 131.301 215.469 130.617Q217.383 129.934 218.75 129.182L220.664 119.475Q217.52 121.184 212.939 122.448Q208.359 123.713 203.506 123.713Q200.088 123.713 197.183 122.927Q194.277 122.141 192.192 120.261Q190.107 118.381 188.945 115.168Q187.783 111.955 187.783 107.17Q187.783 104.162 188.364 100.539Q188.945 96.916 190.21 93.1904Q191.475 89.4648 193.491 85.9785Q195.508 82.4922 198.345 79.792Q201.182 77.0918 204.976 75.4512Q208.77 73.8106 213.35 73.8105Q216.768 73.8106 220.698 74.7676ZM293.74 90.1484Q293.74 94.3867 292.852 99.2402Q291.963 104.094 290.117 108.845Q288.271 113.596 285.435 117.971Q282.598 122.346 278.667 125.661Q274.736 128.977 269.712 130.959Q264.688 132.941 258.398 132.941Q253.203 132.941 248.896 131.335Q244.59 129.729 241.582 126.584Q238.574 123.439 236.899 118.894Q235.225 114.348 235.225 108.469Q235.225 104.162 236.079 99.2402Q236.934 94.3184 238.779 89.4307Q240.625 84.543 243.462 80.0654Q246.299 75.5879 250.195 72.1357Q254.092 68.6836 259.15 66.6328Q264.209 64.582 270.43 64.582Q275.693 64.582 279.966 66.1885Q284.238 67.7949 287.314 70.9736Q290.391 74.1523 292.065 78.9375Q293.74 83.7227 293.74 90.1484ZM301.943 131.232L312.539 131.232L319.99 95.4121Q320.947 90.7637 323.066 86.7988Q325.186 82.834 328.262 79.8945Q331.338 76.9551 335.303 75.2803Q339.268 73.6055 343.848 73.6055Q345.967 73.6055 347.778 74.1182Q349.59 74.6309 350.889 75.6904Q352.188 76.75 352.905 78.4932Q353.623 80.2363 353.623 82.6973Q353.623 85.9102 352.529 90.9004L344.189 131.232L354.785 131.232L362.92 92.1309Q363.604 88.9863 364.048 85.9785Q364.492 82.9707 364.492 80.3047Q364.492 76.5449 363.193 73.6055Q361.895 70.666 359.604 68.6836Q357.314 66.7012 354.067 65.6416Q350.82 64.582 346.924 64.582Q339.883 64.582 334.243 67.3848Q328.604 70.1875 324.434 75.1094L324.16 75.1094L324.16 66.291L315.479 66.291L301.943 131.232ZM419.18 75.3145Q417.061 75.041 415.01 75.041Q410.225 75.041 406.396 76.6475Q402.568 78.2539 399.766 81.0225Q396.963 83.791 395.151 87.5166Q393.34 91.2422 392.451 95.4121L385 131.232L374.404 131.232L387.939 66.291L396.621 66.291L396.621 75.1094L396.895 75.1094Q398.535 72.9219 400.518 71.0078Q402.5 69.0938 404.961 67.6582Q407.422 66.2227 410.327 65.4023Q413.232 64.582 416.65 64.582Q417.881 64.582 419.043 64.6846Q420.205 64.7871 421.299 64.9922L419.18 75.3145ZM434.561 66.291L423.623 66.291L438.389 130.344Q435.244 136.906 432.236 141.657Q429.229 146.408 426.05 149.45Q422.871 152.492 419.385 153.962Q415.898 155.432 411.797 155.432Q410.84 155.432 409.849 155.329Q408.857 155.227 407.832 155.09L405.918 164.25Q407.49 164.523 408.96 164.626Q410.43 164.729 411.865 164.729Q419.59 164.729 425.298 161.857Q431.006 158.986 435.723 153.518Q439.209 149.553 442.354 144.392Q445.498 139.23 448.916 133.078L486.035 66.291L473.799 66.291L446.113 117.629L445.84 117.629L434.561 66.291ZM116.929 78.3223Q118.125 79.6211 119.014 80.8516L115.459 98.0098Q114.16 104.162 111.768 108.981Q109.375 113.801 106.367 117.116Q103.359 120.432 99.9072 122.175Q96.4551 123.918 93.1055 123.918Q91.1914 123.918 89.4141 123.269Q87.6367 122.619 86.2695 121.013Q84.9023 119.406 84.1162 116.604Q83.3301 113.801 83.3301 109.494Q83.3301 106.281 83.9111 102.385Q84.4922 98.4883 85.6885 94.4893Q86.8848 90.4902 88.7305 86.7305Q90.5762 82.9707 93.1055 80.0654Q95.6348 77.1602 98.916 75.3828Q102.197 73.6055 106.23 73.6055Q108.691 73.6055 110.64 74.2549Q112.588 74.9043 114.16 75.9639Q115.732 77.0234 116.929 78.3223ZM269.814 73.6055Q265.85 73.6055 262.568 75.1094Q259.287 76.6133 256.621 79.1768Q253.955 81.7402 251.938 85.1582Q249.922 88.5762 248.555 92.4043Q247.188 96.2324 246.504 100.266Q245.82 104.299 245.82 108.059Q245.82 111.613 246.606 114.553Q247.393 117.492 249.033 119.577Q250.674 121.662 253.203 122.79Q255.732 123.918 259.15 123.918Q263.047 123.918 266.362 122.414Q269.678 120.91 272.344 118.347Q275.01 115.783 277.026 112.399Q279.043 109.016 280.41 105.188Q281.777 101.359 282.461 97.3262Q283.145 93.293 283.145 89.4648Q283.145 85.8418 282.358 82.9365Q281.572 80.0313 279.932 77.9463Q278.291 75.8613 275.762 74.7334Q273.232 73.6055 269.814 73.6055Z" />
  </g>
  <g id="images-(3)">
    <g id="Group">
      <path d="M157.438 2.23176C142.454 11.252 106.521 26.5321 57.6736 44.5726C52.8431 46.347 46.8296 48.5158 44.3158 49.3538C40.5204 50.6846 39.5838 51.2268 38.5487 52.6563C37.9079 53.6421 33.5704 59.7541 28.937 66.2605C24.353 72.7669 16.7129 83.5123 12.0303 90.1666C7.34764 96.8208 2.61573 103.426 1.53133 104.905C0.446931 106.334 -0.193851 107.468 0.0526031 107.369C0.299057 107.27 3.65083 105.299 7.44622 103.081L14.3962 98.9403L22.4306 86.5683C26.8668 79.7169 32.7324 70.6474 35.4927 66.4084C38.3023 62.1694 40.7668 58.2754 41.0626 57.7825C41.309 57.2896 43.4778 56.2052 46.1395 55.2194C89.7126 39.5449 126.385 23.2296 147.629 10.069C154.284 5.92857 162.712 -0.331364 161.283 0.0136773C161.184 0.0136773 159.459 0.999494 157.438 2.23176L157.438 2.23176Z" transform="translate(58.455597 0)" id="Shape" fill="#777C84" fill-rule="evenodd" stroke="none" />
      <path d="M27.2085 1.7913C26.1734 4.9952 21.5894 14.3112 18.3855 19.6839C14.4915 26.2395 9.71029 32.8938 4.23901 39.3509L0 44.4278L2.80957 55.6169C4.33759 61.7289 5.81632 67.1016 6.06277 67.496C6.30923 67.9396 6.50639 66.5594 6.50639 63.7499C6.50639 61.2853 6.65426 55.8633 6.85142 51.7229L7.14717 44.1814L10.1046 40.9282C17.8926 32.3516 23.561 21.5076 26.3706 9.82571C28.1451 2.38279 28.6873 -2.94061 27.2085 1.7913L27.2085 1.7913Z" transform="translate(39.82695 12.319458)" id="Shape" fill="#777C84" fill-rule="evenodd" stroke="none" />
      <path d="M14.0875 4.24263C10.9822 10.6012 6.64462 16.8118 2.70135 20.5579C-0.50255 23.5646 -0.60113 23.7125 1.07475 23.0224C5.95454 21.0508 10.7358 15.9246 13.496 9.91107C14.8269 7.00292 16.7492 0.250087 16.3549 0.00363273C16.2563 -0.0949549 15.2705 1.82738 14.0875 4.24263L14.0875 4.24263Z" transform="translate(54.03238 35.25305)" id="Shape" fill="#777C84" fill-rule="evenodd" stroke="none" />
      <path d="M77.6695 0.878188C66.6777 5.75798 28.4773 18.7708 1.86024 26.7066C-1.39295 27.6431 -0.801457 27.6431 7.03578 26.5587C33.7514 22.714 58.7418 14.1867 76.2894 2.80053C80.8734 -0.206216 81.2677 -0.699124 77.6695 0.878188L77.6695 0.878188Z" transform="translate(105.84018 39.99756)" id="Shape" fill="#777C84" fill-rule="evenodd" stroke="none" />
      <path d="M55.063 1.72518C45.4513 5.71772 14.7431 16.1181 2.9133 19.4206C1.23741 19.9135 -0.0934432 20.3571 0.00514449 20.4557C0.103717 20.5543 3.50478 20.1106 7.54663 19.4206C25.2913 16.5124 41.6559 11.0411 53.3378 4.14043C57.5768 1.62659 60.0414 0 59.4992 0C59.3513 0 57.3797 0.788641 55.063 1.72518L55.063 1.72518Z" transform="translate(105.625084 63.598877)" id="Shape" fill="#777C84" fill-rule="evenodd" stroke="none" />
      <path d="M34.2571 2.86121C28.1451 4.4385 17.9419 6.85376 11.5833 8.2339L0 10.7477L5.81632 10.5013C18.7305 9.95908 33.9614 6.31156 43.1295 1.57964C44.9039 0.692415 46.1362 -0.0469472 45.8405 0.00233157C45.594 0.00233157 40.3692 1.33319 34.2571 2.86121L34.2571 2.86121Z" transform="translate(108.19332 82.86926)" id="Shape" fill="#777C84" fill-rule="evenodd" stroke="none" />
      <path d="M52.2483 1.14362C50.2273 1.8337 46.8756 2.8688 44.8546 3.50959C38.8412 5.38263 17.2025 12.1355 14.6887 12.9241C12.4706 13.6635 12.0762 14.0578 6.16135 22.388L0 31.1124L3.54894 34.7107C9.71029 40.872 10.2032 40.9706 7.09788 35.5979L4.38688 30.9153L10.1046 24.0638L15.8716 17.1631L36.6231 8.48796C56.6844 0.157802 60.0855 -1.46879 52.2483 1.14362L52.2483 1.14362Z" transform="translate(0 89.36804)" id="Shape" fill="#777C84" fill-rule="evenodd" stroke="none" />
      <path d="M0.0153432 0.155358C0.212503 0.845426 3.16995 9.71777 6.57102 19.8717L12.831 38.3557L19.4852 41.6582C23.0834 43.482 31.4136 47.5731 37.92 50.7277C44.4264 53.9316 51.0806 57.1848 52.6579 57.9735C55.2703 59.255 55.5168 59.3043 54.876 58.4171C54.531 57.8256 53.003 55.6568 51.5242 53.5373L48.8132 49.6433L33.5331 43.2848L18.3022 36.877L11.4015 22.8291C7.60612 15.0905 3.41641 6.56316 2.13484 3.85217C0.803999 1.14117 -0.132523 -0.534711 0.0153432 0.155358L0.0153432 0.155358Z" transform="translate(94.42585 103.81262)" id="Shape" fill="#777C84" fill-rule="evenodd" stroke="none" />
      <path d="M1.38014 1.21323L0 2.64266L2.46454 5.35365C4.87979 8.01536 5.52057 8.3111 5.52057 6.73379C5.56986 4.56501 5.81631 4.5157 18.139 6.38876C24.6454 7.37457 31.0532 8.40968 32.4334 8.70542L34.9472 9.19832L36.5245 12.8459C39.4819 19.5001 44.1153 25.6615 49.488 29.9005C51.8539 31.7242 56.783 34.5831 56.783 34.0902C56.783 33.9916 55.8465 33.2029 54.7128 32.365C46.9742 26.6473 41.355 18.5143 39.0876 9.64195C38.5947 7.62103 38.0032 5.94514 37.7568 5.84656C37.5103 5.79728 30.0181 4.46642 21.0472 2.9877C12.1255 1.50897 4.33759 0.178117 3.7461 0.0302502C3.05603 -0.117616 2.26738 0.276704 1.38014 1.21323L1.38014 1.21323Z" transform="translate(8.773743 119.464355)" id="Shape" fill="#777C84" fill-rule="evenodd" stroke="none" />
      <path d="M0.258014 0.904798C0.504468 1.59485 1.3917 3.36934 2.22965 4.84806C7.55305 14.164 17.1648 21.4098 30.0297 25.6981C36.4868 27.8669 37.6697 27.9161 32.8392 25.7966C21.1573 20.7197 9.03177 11.6995 2.91971 3.56648C-0.0870276 -0.42606 -0.333482 -0.672514 0.258014 0.904798L0.258014 0.904798Z" transform="translate(54.405487 129.28589)" id="Shape" fill="#777C84" fill-rule="evenodd" stroke="none" />
      <path d="M12.135 12.2933C19.4793 19.4405 28.2531 28.1156 31.7528 31.4674L38.0127 37.6288L38.0127 30.6787L38.0127 23.6794L36.6818 22.7429C35.8932 22.2007 29.9783 18.5039 23.4719 14.5114C13.4166 8.35003 9.02969 5.58974 0.0587555 0.019871C-0.631313 -0.374449 4.83997 5.14612 12.135 12.2933L12.135 12.2933Z" transform="translate(112.32432 151.80945)" id="Shape" fill="#777C84" fill-rule="evenodd" stroke="none" />
      <path d="M3.50403 5.76703C5.57425 8.97093 11.1441 17.6954 15.9746 25.1383L24.6991 38.644L28.3959 40.0241C33.7193 41.9958 33.67 41.9958 33.9165 38.0525L34.1629 34.75L17.1576 17.3504C7.79233 7.83723 0.102965 0 0.00437733 0C-0.0941953 0 1.4831 2.61241 3.50403 5.76703L3.50403 5.76703Z" transform="translate(109.61839 158.68079)" id="Shape" fill="#777C84" fill-rule="evenodd" stroke="none" />
      <path d="M0 0.0914425C0 0.239324 1.72518 3.88684 3.84469 8.22443C5.9149 12.5127 9.56242 20.0049 11.8298 24.7862L16.0195 33.5106L20.1107 33.5599C22.3288 33.5599 24.1525 33.4121 24.1525 33.2642C24.1525 33.1163 20.9979 28.5815 17.1039 23.2581C13.2099 17.9347 7.98512 10.689 5.42199 7.18933C0.739362 0.63366 0 -0.352157 0 0.0914425L0 0.0914425Z" transform="translate(102.03198 161.59595)" id="Shape" fill="#777C84" fill-rule="evenodd" stroke="none" />
    </g>
  </g>
</svg>