<?xml version="1.0" encoding="utf-8"?>
<svg width="828px" height="976px" viewBox="0 0 828 976" version="1.1" xmlns:xlink="http://www.w3.org/1999/xlink" xmlns="http://www.w3.org/2000/svg">
  <defs>
    <linearGradient x1="0" y1="0" x2="0.31719127" y2="0.36585367" id="gradient_1">
      <stop offset="0" stop-color="#3D434E" />
      <stop offset="1" stop-color="#50596A" />
    </linearGradient>
    <linearGradient x1="0.31284916" y1="0.339726" x2="0.33240223" y2="0.74794525" id="gradient_2">
      <stop offset="0" stop-color="#333B49" />
      <stop offset="1" stop-color="#1A1D23" />
    </linearGradient>
    <linearGradient x1="0.50000006" y1="0.5000001" x2="0.50000006" y2="1.0000001" id="gradient_3">
      <stop offset="0" stop-color="#333B49" />
      <stop offset="1" stop-color="#1B2127" />
    </linearGradient>
    <filter filterUnits="userSpaceOnUse" color-interpolation-filters="sRGB" id="filter_1">
      <feFlood flood-opacity="0" result="BackgroundImageFix" />
      <feBlend mode="normal" in="SourceGraphic" in2="BackgroundImageFix" result="shape" />
      <feGaussianBlur stdDeviation="3" result="effect0_gaussianBlur" />
    </filter>
    <filter filterUnits="userSpaceOnUse" color-interpolation-filters="sRGB" id="filter_2">
      <feFlood flood-opacity="0" result="BackgroundImageFix" />
      <feBlend mode="normal" in="SourceGraphic" in2="BackgroundImageFix" result="shape" />
      <feGaussianBlur stdDeviation="25" result="effect0_gaussianBlur" />
    </filter>
  </defs>
  <path d="M0 1C0 0.447715 0.447715 0 1 0C1.55228 0 2 0.447715 2 1C2 1.55228 1.55228 2 1 2C0.447715 2 0 1.55228 0 1Z" transform="translate(305 109)" id="Ellipse-2-Copy-469" fill="#FFFFFF" fill-opacity="0.54901963" fill-rule="evenodd" stroke="none" />
  <path d="M0 0L826 0L826 318C826 318 631.5 293 357 318C150.5 341 0 410 0 410L0 0Z" transform="translate(1 2)" id="Rectangle-2" fill="url(#gradient_1)" fill-rule="evenodd" stroke="none" />
  <path d="M0 91C0 40.7421 40.7421 0 91 0C141.258 0 182 40.7421 182 91C182 141.258 141.258 182 91 182C40.7421 182 0 141.258 0 91Z" transform="translate(508 69)" id="Ellipse-401" fill="#FFFFFF" fill-rule="evenodd" stroke="none" filter="url(#filter_1)" />
  <path d="M0 88C0 39.3989 39.3989 0 88 0C136.601 0 176 39.3989 176 88C176 136.601 136.601 176 88 176C39.3989 176 0 136.601 0 88Z" transform="translate(511.00012 73)" id="Ellipse-401-Copy" fill="#FFFFFF" fill-rule="evenodd" stroke="none" />
  <path d="M0 85C0 38.0558 40.2944 0 90 0C139.706 0 180 38.0558 180 85C180 131.944 139.706 170 90 170C40.2944 170 0 131.944 0 85Z" transform="translate(510 75)" id="Ellipse-401-Copy-2" fill="#FFFFFF" fill-opacity="0.8980392" fill-rule="evenodd" stroke="none" filter="url(#filter_2)" />
  <path d="M0 2.5C0 1.11929 1.11929 0 2.5 0C3.88071 0 5 1.11929 5 2.5C5 3.88071 3.88071 5 2.5 5C1.11929 5 0 3.88071 0 2.5Z" transform="translate(354 95)" id="Ellipse-2-Copy-401" fill="#FFFFFF" fill-opacity="0.29803923" fill-rule="evenodd" stroke="none" />
  <path d="M0 2.5C0 1.11929 1.11929 0 2.5 0C3.88071 0 5 1.11929 5 2.5C5 3.88071 3.88071 5 2.5 5C1.11929 5 0 3.88071 0 2.5Z" transform="translate(302 202)" id="Ellipse-2-Copy-424" fill="#FFFFFF" fill-opacity="0.29803923" fill-rule="evenodd" stroke="none" />
  <path d="M0 2.5C0 1.11929 1.11929 0 2.5 0C3.88071 0 5 1.11929 5 2.5C5 3.88071 3.88071 5 2.5 5C1.11929 5 0 3.88071 0 2.5Z" transform="translate(341 27)" id="Ellipse-2-Copy-421" fill="#FFFFFF" fill-opacity="0.29803923" fill-rule="evenodd" stroke="none" />
  <path d="M0 1C0 0.447715 0.447715 0 1 0C1.55228 0 2 0.447715 2 1C2 1.55228 1.55228 2 1 2C0.447715 2 0 1.55228 0 1Z" transform="translate(356 27)" id="Ellipse-2-Copy-470" fill="#FFFFFF" fill-opacity="0.4" fill-rule="evenodd" stroke="none" />
  <path d="M0 1C0 0.447715 0.447715 0 1 0C1.55228 0 2 0.447715 2 1C2 1.55228 1.55228 2 1 2C0.447715 2 0 1.55228 0 1Z" transform="translate(337 255.30005)" id="Ellipse-2-Copy-494" fill="#FFFFFF" fill-opacity="0.4" fill-rule="evenodd" stroke="none" />
  <path d="M0 1C0 0.447715 0.447715 0 1 0C1.55228 0 2 0.447715 2 1C2 1.55228 1.55228 2 1 2C0.447715 2 0 1.55228 0 1Z" transform="translate(345 191.69995)" id="Ellipse-2-Copy-482" fill="#FFFFFF" fill-opacity="0.4" fill-rule="evenodd" stroke="none" />
  <path d="M0 1C0 0.447715 0.447715 0 1 0C1.55228 0 2 0.447715 2 1C2 1.55228 1.55228 2 1 2C0.447715 2 0 1.55228 0 1Z" transform="translate(412 191.3999)" id="Ellipse-2-Copy-492" fill="#FFFFFF" fill-opacity="0.4" fill-rule="evenodd" stroke="none" />
  <path d="M0 1C0 0.447715 0.447715 0 1 0C1.55228 0 2 0.447715 2 1C2 1.55228 1.55228 2 1 2C0.447715 2 0 1.55228 0 1Z" transform="translate(219 50)" id="Ellipse-2-Copy-472" fill="#FFFFFF" fill-opacity="0.4" fill-rule="evenodd" stroke="none" />
  <path d="M0 1C0 0.447715 0.447715 0 1 0C1.55228 0 2 0.447715 2 1C2 1.55228 1.55228 2 1 2C0.447715 2 0 1.55228 0 1Z" transform="translate(23 44.69995)" id="Ellipse-2-Copy-480" fill="#FFFFFF" fill-opacity="0.4" fill-rule="evenodd" stroke="none" />
  <path d="M0 1C0 0.447715 0.447715 0 1 0C1.55228 0 2 0.447715 2 1C2 1.55228 1.55228 2 1 2C0.447715 2 0 1.55228 0 1Z" transform="translate(22 362)" id="Ellipse-2-Copy-488" fill="#FFFFFF" fill-opacity="0.4" fill-rule="evenodd" stroke="none" />
  <path d="M0 1C0 0.447715 0.447715 0 1 0C1.55228 0 2 0.447715 2 1C2 1.55228 1.55228 2 1 2C0.447715 2 0 1.55228 0 1Z" transform="translate(83 4)" id="Ellipse-2-Copy-487" fill="#FFFFFF" fill-opacity="0.4" fill-rule="evenodd" stroke="none" />
  <path d="M0 1C0 0.447715 0.447715 0 1 0C1.55228 0 2 0.447715 2 1C2 1.55228 1.55228 2 1 2C0.447715 2 0 1.55228 0 1Z" transform="translate(273 165)" id="Ellipse-2-Copy-478" fill="#FFFFFF" fill-opacity="0.4" fill-rule="evenodd" stroke="none" />
  <path d="M0 1C0 0.447715 0.447715 0 1 0C1.55228 0 2 0.447715 2 1C2 1.55228 1.55228 2 1 2C0.447715 2 0 1.55228 0 1Z" transform="translate(121 95)" id="Ellipse-2-Copy-473" fill="#FFFFFF" fill-opacity="0.4" fill-rule="evenodd" stroke="none" />
  <path d="M0 1C0 0.447715 0.447715 0 1 0C1.55228 0 2 0.447715 2 1C2 1.55228 1.55228 2 1 2C0.447715 2 0 1.55228 0 1Z" transform="translate(55 115.30005)" id="Ellipse-2-Copy-476" fill="#FFFFFF" fill-opacity="0.4" fill-rule="evenodd" stroke="none" />
  <path d="M0 1C0 0.447715 0.447715 0 1 0C1.55228 0 2 0.447715 2 1C2 1.55228 1.55228 2 1 2C0.447715 2 0 1.55228 0 1Z" transform="translate(307 107)" id="Ellipse-2-Copy-471" fill="#FFFFFF" fill-opacity="0.4" fill-rule="evenodd" stroke="none" />
  <path d="M0 1C0 0.447715 0.447715 0 1 0C1.55228 0 2 0.447715 2 1C2 1.55228 1.55228 2 1 2C0.447715 2 0 1.55228 0 1Z" transform="translate(389 107)" id="Ellipse-2-Copy-493" fill="#FFFFFF" fill-opacity="0.4" fill-rule="evenodd" stroke="none" />
  <path d="M0 1C0 0.447715 0.447715 0 1 0C1.55228 0 2 0.447715 2 1C2 1.55228 1.55228 2 1 2C0.447715 2 0 1.55228 0 1Z" transform="translate(436 52)" id="Ellipse-2-Copy-490" fill="#FFFFFF" fill-opacity="0.4" fill-rule="evenodd" stroke="none" />
  <path d="M0 1C0 0.447715 0.447715 0 1 0C1.55228 0 2 0.447715 2 1C2 1.55228 1.55228 2 1 2C0.447715 2 0 1.55228 0 1Z" transform="translate(808 203)" id="Ellipse-2-Copy-503" fill="#FFFFFF" fill-opacity="0.4" fill-rule="evenodd" stroke="none" />
  <path d="M0 1C0 0.447715 0.447715 0 1 0C1.55228 0 2 0.447715 2 1C2 1.55228 1.55228 2 1 2C0.447715 2 0 1.55228 0 1Z" transform="translate(467 117)" id="Ellipse-2-Copy-498" fill="#FFFFFF" fill-opacity="0.4" fill-rule="evenodd" stroke="none" />
  <path d="M0 1C0 0.447715 0.447715 0 1 0C1.55228 0 2 0.447715 2 1C2 1.55228 1.55228 2 1 2C0.447715 2 0 1.55228 0 1Z" transform="translate(200 194.30005)" id="Ellipse-2-Copy-477" fill="#FFFFFF" fill-opacity="0.4" fill-rule="evenodd" stroke="none" />
  <path d="M0 1C0 0.447715 0.447715 0 1 0C1.55228 0 2 0.447715 2 1C2 1.55228 1.55228 2 1 2C0.447715 2 0 1.55228 0 1Z" transform="translate(182 325.30005)" id="Ellipse-2-Copy-486" fill="#FFFFFF" fill-opacity="0.4" fill-rule="evenodd" stroke="none" />
  <path d="M0 1C0 0.447715 0.447715 0 1 0C1.55228 0 2 0.447715 2 1C2 1.55228 1.55228 2 1 2C0.447715 2 0 1.55228 0 1Z" transform="translate(290 27)" id="Ellipse-2-Copy-475" fill="#FFFFFF" fill-opacity="0.4" fill-rule="evenodd" stroke="none" />
  <path d="M0 1C0 0.447715 0.447715 0 1 0C1.55228 0 2 0.447715 2 1C2 1.55228 1.55228 2 1 2C0.447715 2 0 1.55228 0 1Z" transform="translate(148 307.69995)" id="Ellipse-2-Copy-485" fill="#FFFFFF" fill-opacity="0.4" fill-rule="evenodd" stroke="none" />
  <path d="M0 1C0 0.447715 0.447715 0 1 0C1.55228 0 2 0.447715 2 1C2 1.55228 1.55228 2 1 2C0.447715 2 0 1.55228 0 1Z" transform="translate(231 254)" id="Ellipse-2-Copy-484" fill="#FFFFFF" fill-opacity="0.4" fill-rule="evenodd" stroke="none" />
  <path d="M0 1C0 0.447715 0.447715 0 1 0C1.55228 0 2 0.447715 2 1C2 1.55228 1.55228 2 1 2C0.447715 2 0 1.55228 0 1Z" transform="translate(391 298)" id="Ellipse-2-Copy-495" fill="#FFFFFF" fill-opacity="0.4" fill-rule="evenodd" stroke="none" />
  <path d="M0 1C0 0.447715 0.447715 0 1 0C1.55228 0 2 0.447715 2 1C2 1.55228 1.55228 2 1 2C0.447715 2 0 1.55228 0 1Z" transform="translate(231 129.30005)" id="Ellipse-2-Copy-483" fill="#FFFFFF" fill-opacity="0.4" fill-rule="evenodd" stroke="none" />
  <path d="M0 1C0 0.447715 0.447715 0 1 0C1.55228 0 2 0.447715 2 1C2 1.55228 1.55228 2 1 2C0.447715 2 0 1.55228 0 1Z" transform="translate(465 249)" id="Ellipse-2-Copy-481" fill="#FFFFFF" fill-opacity="0.4" fill-rule="evenodd" stroke="none" />
  <path d="M0 1C0 0.447715 0.447715 0 1 0C1.55228 0 2 0.447715 2 1C2 1.55228 1.55228 2 1 2C0.447715 2 0 1.55228 0 1Z" transform="translate(635 285)" id="Ellipse-2-Copy-497" fill="#FFFFFF" fill-opacity="0.4" fill-rule="evenodd" stroke="none" />
  <path d="M0 1C0 0.447715 0.447715 0 1 0C1.55228 0 2 0.447715 2 1C2 1.55228 1.55228 2 1 2C0.447715 2 0 1.55228 0 1Z" transform="translate(542 278)" id="Ellipse-2-Copy-496" fill="#FFFFFF" fill-opacity="0.4" fill-rule="evenodd" stroke="none" />
  <path d="M0 1C0 0.447715 0.447715 0 1 0C1.55228 0 2 0.447715 2 1C2 1.55228 1.55228 2 1 2C0.447715 2 0 1.55228 0 1Z" transform="translate(83 244.69995)" id="Ellipse-2-Copy-479" fill="#FFFFFF" fill-opacity="0.4" fill-rule="evenodd" stroke="none" />
  <path d="M0 1C0 0.447715 0.447715 0 1 0C1.55228 0 2 0.447715 2 1C2 1.55228 1.55228 2 1 2C0.447715 2 0 1.55228 0 1Z" transform="translate(138 160)" id="Ellipse-2-Copy-489" fill="#FFFFFF" fill-opacity="0.4" fill-rule="evenodd" stroke="none" />
  <path d="M0 1C0 0.447715 0.447715 0 1 0C1.55228 0 2 0.447715 2 1C2 1.55228 1.55228 2 1 2C0.447715 2 0 1.55228 0 1Z" transform="translate(475 24.300049)" id="Ellipse-2-Copy-474" fill="#FFFFFF" fill-opacity="0.4" fill-rule="evenodd" stroke="none" />
  <path d="M0 1C0 0.447715 0.447715 0 1 0C1.55228 0 2 0.447715 2 1C2 1.55228 1.55228 2 1 2C0.447715 2 0 1.55228 0 1Z" transform="translate(779 264.30005)" id="Ellipse-2-Copy-507" fill="#FFFFFF" fill-opacity="0.4" fill-rule="evenodd" stroke="none" />
  <path d="M0 1C0 0.447715 0.447715 0 1 0C1.55228 0 2 0.447715 2 1C2 1.55228 1.55228 2 1 2C0.447715 2 0 1.55228 0 1Z" transform="translate(574 83.30005)" id="Ellipse-2-Copy-502" fill="#FFFFFF" fill-opacity="0.4" fill-rule="evenodd" stroke="none" />
  <path d="M0 1C0 0.447715 0.447715 0 1 0C1.55228 0 2 0.447715 2 1C2 1.55228 1.55228 2 1 2C0.447715 2 0 1.55228 0 1Z" transform="translate(659 16.300049)" id="Ellipse-2-Copy-501" fill="#FFFFFF" fill-opacity="0.4" fill-rule="evenodd" stroke="none" />
  <path d="M0 1C0 0.447715 0.447715 0 1 0C1.55228 0 2 0.447715 2 1C2 1.55228 1.55228 2 1 2C0.447715 2 0 1.55228 0 1Z" transform="translate(720 18.300049)" id="Ellipse-2-Copy-506" fill="#FFFFFF" fill-opacity="0.4" fill-rule="evenodd" stroke="none" />
  <path d="M0 1C0 0.447715 0.447715 0 1 0C1.55228 0 2 0.447715 2 1C2 1.55228 1.55228 2 1 2C0.447715 2 0 1.55228 0 1Z" transform="translate(800 109.30005)" id="Ellipse-2-Copy-508" fill="#FFFFFF" fill-opacity="0.4" fill-rule="evenodd" stroke="none" />
  <path d="M0 1C0 0.447715 0.447715 0 1 0C1.55228 0 2 0.447715 2 1C2 1.55228 1.55228 2 1 2C0.447715 2 0 1.55228 0 1Z" transform="translate(669 139.30005)" id="Ellipse-2-Copy-505" fill="#FFFFFF" fill-opacity="0.4" fill-rule="evenodd" stroke="none" />
  <path d="M0 1C0 0.447715 0.447715 0 1 0C1.55228 0 2 0.447715 2 1C2 1.55228 1.55228 2 1 2C0.447715 2 0 1.55228 0 1Z" transform="translate(578 54.30005)" id="Ellipse-2-Copy-500" fill="#FFFFFF" fill-opacity="0.4" fill-rule="evenodd" stroke="none" />
  <path d="M0 1C0 0.447715 0.447715 0 1 0C1.55228 0 2 0.447715 2 1C2 1.55228 1.55228 2 1 2C0.447715 2 0 1.55228 0 1Z" transform="translate(532 75.30005)" id="Ellipse-2-Copy-499" fill="#FFFFFF" fill-opacity="0.4" fill-rule="evenodd" stroke="none" />
  <path d="M0 1C0 0.447715 0.447715 0 1 0C1.55228 0 2 0.447715 2 1C2 1.55228 1.55228 2 1 2C0.447715 2 0 1.55228 0 1Z" transform="translate(743 245.30005)" id="Ellipse-2-Copy-504" fill="#FFFFFF" fill-opacity="0.4" fill-rule="evenodd" stroke="none" />
  <path d="M0 1C0 0.447715 0.447715 0 1 0C1.55228 0 2 0.447715 2 1C2 1.55228 1.55228 2 1 2C0.447715 2 0 1.55228 0 1Z" transform="translate(480 205)" id="Ellipse-2-Copy-491" fill="#FFFFFF" fill-opacity="0.4" fill-rule="evenodd" stroke="none" />
  <path d="M0 2.5C0 1.11929 1.11929 0 2.5 0C3.88071 0 5 1.11929 5 2.5C5 3.88071 3.88071 5 2.5 5C1.11929 5 0 3.88071 0 2.5Z" transform="translate(438 135)" id="Ellipse-2-Copy-461" fill="#FFFFFF" fill-opacity="0.29803923" fill-rule="evenodd" stroke="none" />
  <path d="M0 2.5C0 1.11929 1.11929 0 2.5 0C3.88071 0 5 1.11929 5 2.5C5 3.88071 3.88071 5 2.5 5C1.11929 5 0 3.88071 0 2.5Z" transform="translate(247 32)" id="Ellipse-2-Copy-416" fill="#FFFFFF" fill-opacity="0.29803923" fill-rule="evenodd" stroke="none" />
  <path d="M0 2.5C0 1.11929 1.11929 0 2.5 0C3.88071 0 5 1.11929 5 2.5C5 3.88071 3.88071 5 2.5 5C1.11929 5 0 3.88071 0 2.5Z" transform="translate(202 11)" id="Ellipse-2-Copy-455" fill="#FFFFFF" fill-opacity="0.29803923" fill-rule="evenodd" stroke="none" />
  <path d="M0 2.5C0 1.11929 1.11929 0 2.5 0C3.88071 0 5 1.11929 5 2.5C5 3.88071 3.88071 5 2.5 5C1.11929 5 0 3.88071 0 2.5Z" transform="translate(738 95)" id="Ellipse-2-Copy-404" fill="#FFFFFF" fill-opacity="0.29803923" fill-rule="evenodd" stroke="none" />
  <path d="M0 2.5C0 1.11929 1.11929 0 2.5 0C3.88071 0 5 1.11929 5 2.5C5 3.88071 3.88071 5 2.5 5C1.11929 5 0 3.88071 0 2.5Z" transform="translate(509 279)" id="Ellipse-2-Copy-466" fill="#FFFFFF" fill-opacity="0.29803923" fill-rule="evenodd" stroke="none" />
  <path d="M0 2.5C0 1.11929 1.11929 0 2.5 0C3.88071 0 5 1.11929 5 2.5C5 3.88071 3.88071 5 2.5 5C1.11929 5 0 3.88071 0 2.5Z" transform="translate(792 153)" id="Ellipse-2-Copy-439" fill="#FFFFFF" fill-opacity="0.29803923" fill-rule="evenodd" stroke="none" />
  <path d="M0 2.5C0 1.11929 1.11929 0 2.5 0C3.88071 0 5 1.11929 5 2.5C5 3.88071 3.88071 5 2.5 5C1.11929 5 0 3.88071 0 2.5Z" transform="translate(691.0001 279)" id="Ellipse-2-Copy-441" fill="#FFFFFF" fill-opacity="0.29803923" fill-rule="evenodd" stroke="none" />
  <path d="M0 2.5C0 1.11929 1.11929 0 2.5 0C3.88071 0 5 1.11929 5 2.5C5 3.88071 3.88071 5 2.5 5C1.11929 5 0 3.88071 0 2.5Z" transform="translate(796 67)" id="Ellipse-2-Copy-438" fill="#FFFFFF" fill-opacity="0.29803923" fill-rule="evenodd" stroke="none" />
  <path d="M0 2.5C0 1.11929 1.11929 0 2.5 0C3.88071 0 5 1.11929 5 2.5C5 3.88071 3.88071 5 2.5 5C1.11929 5 0 3.88071 0 2.5Z" transform="translate(792 239)" id="Ellipse-2-Copy-444" fill="#FFFFFF" fill-opacity="0.29803923" fill-rule="evenodd" stroke="none" />
  <path d="M0 2.5C0 1.11929 1.11929 0 2.5 0C3.88071 0 5 1.11929 5 2.5C5 3.88071 3.88071 5 2.5 5C1.11929 5 0 3.88071 0 2.5Z" transform="translate(622 32)" id="Ellipse-2-Copy-436" fill="#FFFFFF" fill-opacity="0.29803923" fill-rule="evenodd" stroke="none" />
  <path d="M0 2.5C0 1.11929 1.11929 0 2.5 0C3.88071 0 5 1.11929 5 2.5C5 3.88071 3.88071 5 2.5 5C1.11929 5 0 3.88071 0 2.5Z" transform="translate(177 69)" id="Ellipse-2-Copy-403" fill="#FFFFFF" fill-opacity="0.29803923" fill-rule="evenodd" stroke="none" />
  <path d="M0 2.5C0 1.11929 1.11929 0 2.5 0C3.88071 0 5 1.11929 5 2.5C5 3.88071 3.88071 5 2.5 5C1.11929 5 0 3.88071 0 2.5Z" transform="translate(280 118)" id="Ellipse-2-Copy-417" fill="#FFFFFF" fill-opacity="0.29803923" fill-rule="evenodd" stroke="none" />
  <path d="M0 2.5C0 1.11929 1.11929 0 2.5 0C3.88071 0 5 1.11929 5 2.5C5 3.88071 3.88071 5 2.5 5C1.11929 5 0 3.88071 0 2.5Z" transform="translate(297 69)" id="Ellipse-2-Copy-454" fill="#FFFFFF" fill-opacity="0.29803923" fill-rule="evenodd" stroke="none" />
  <path d="M0 2.5C0 1.11929 1.11929 0 2.5 0C3.88071 0 5 1.11929 5 2.5C5 3.88071 3.88071 5 2.5 5C1.11929 5 0 3.88071 0 2.5Z" transform="translate(218 95)" id="Ellipse-2-Copy-448" fill="#FFFFFF" fill-opacity="0.29803923" fill-rule="evenodd" stroke="none" />
  <path d="M0 2.5C0 1.11929 1.11929 0 2.5 0C3.88071 0 5 1.11929 5 2.5C5 3.88071 3.88071 5 2.5 5C1.11929 5 0 3.88071 0 2.5Z" transform="translate(446 207)" id="Ellipse-2-Copy-422" fill="#FFFFFF" fill-opacity="0.29803923" fill-rule="evenodd" stroke="none" />
  <path d="M0 2.5C0 1.11929 1.11929 0 2.5 0C3.88071 0 5 1.11929 5 2.5C5 3.88071 3.88071 5 2.5 5C1.11929 5 0 3.88071 0 2.5Z" transform="translate(582 279)" id="Ellipse-2-Copy-432" fill="#FFFFFF" fill-opacity="0.29803923" fill-rule="evenodd" stroke="none" />
  <path d="M0 2.5C0 1.11929 1.11929 0 2.5 0C3.88071 0 5 1.11929 5 2.5C5 3.88071 3.88071 5 2.5 5C1.11929 5 0 3.88071 0 2.5Z" transform="translate(801 300)" id="Ellipse-2-Copy-440" fill="#FFFFFF" fill-opacity="0.29803923" fill-rule="evenodd" stroke="none" />
  <path d="M0 2.5C0 1.11929 1.11929 0 2.5 0C3.88071 0 5 1.11929 5 2.5C5 3.88071 3.88071 5 2.5 5C1.11929 5 0 3.88071 0 2.5Z" transform="translate(514 251)" id="Ellipse-2-Copy-431" fill="#FFFFFF" fill-opacity="0.29803923" fill-rule="evenodd" stroke="none" />
  <path d="M0 2.5C0 1.11929 1.11929 0 2.5 0C3.88071 0 5 1.11929 5 2.5C5 3.88071 3.88071 5 2.5 5C1.11929 5 0 3.88071 0 2.5Z" transform="translate(475 160)" id="Ellipse-2-Copy-467" fill="#FFFFFF" fill-opacity="0.29803923" fill-rule="evenodd" stroke="none" />
  <path d="M0 2.5C0 1.11929 1.11929 0 2.5 0C3.88071 0 5 1.11929 5 2.5C5 3.88071 3.88071 5 2.5 5C1.11929 5 0 3.88071 0 2.5Z" transform="translate(408 246)" id="Ellipse-2-Copy-446" fill="#FFFFFF" fill-opacity="0.29803923" fill-rule="evenodd" stroke="none" />
  <path d="M0 2.5C0 1.11929 1.11929 0 2.5 0C3.88071 0 5 1.11929 5 2.5C5 3.88071 3.88071 5 2.5 5C1.11929 5 0 3.88071 0 2.5Z" transform="translate(519 185)" id="Ellipse-2-Copy-433" fill="#FFFFFF" fill-opacity="0.29803923" fill-rule="evenodd" stroke="none" />
  <path d="M0 2.5C0 1.11929 1.11929 0 2.5 0C3.88071 0 5 1.11929 5 2.5C5 3.88071 3.88071 5 2.5 5C1.11929 5 0 3.88071 0 2.5Z" transform="translate(562 234)" id="Ellipse-2-Copy-468" fill="#FFFFFF" fill-opacity="0.29803923" fill-rule="evenodd" stroke="none" />
  <path d="M0 2.5C0 1.11929 1.11929 0 2.5 0C3.88071 0 5 1.11929 5 2.5C5 3.88071 3.88071 5 2.5 5C1.11929 5 0 3.88071 0 2.5Z" transform="translate(741 207)" id="Ellipse-2-Copy-443" fill="#FFFFFF" fill-opacity="0.29803923" fill-rule="evenodd" stroke="none" />
  <path d="M0 2.5C0 1.11929 1.11929 0 2.5 0C3.88071 0 5 1.11929 5 2.5C5 3.88071 3.88071 5 2.5 5C1.11929 5 0 3.88071 0 2.5Z" transform="translate(745 279)" id="Ellipse-2-Copy-445" fill="#FFFFFF" fill-opacity="0.29803923" fill-rule="evenodd" stroke="none" />
  <path d="M0 2.5C0 1.11929 1.11929 0 2.5 0C3.88071 0 5 1.11929 5 2.5C5 3.88071 3.88071 5 2.5 5C1.11929 5 0 3.88071 0 2.5Z" transform="translate(587 210)" id="Ellipse-2-Copy-442" fill="#FFFFFF" fill-opacity="0.29803923" fill-rule="evenodd" stroke="none" />
  <path d="M0 2.5C0 1.11929 1.11929 0 2.5 0C3.88071 0 5 1.11929 5 2.5C5 3.88071 3.88071 5 2.5 5C1.11929 5 0 3.88071 0 2.5Z" transform="translate(438 284)" id="Ellipse-2-Copy-430" fill="#FFFFFF" fill-opacity="0.29803923" fill-rule="evenodd" stroke="none" />
  <path d="M0 2.5C0 1.11929 1.11929 0 2.5 0C3.88071 0 5 1.11929 5 2.5C5 3.88071 3.88071 5 2.5 5C1.11929 5 0 3.88071 0 2.5Z" transform="translate(425 90)" id="Ellipse-2-Copy-427" fill="#FFFFFF" fill-opacity="0.29803923" fill-rule="evenodd" stroke="none" />
  <path d="M0 2.5C0 1.11929 1.11929 0 2.5 0C3.88071 0 5 1.11929 5 2.5C5 3.88071 3.88071 5 2.5 5C1.11929 5 0 3.88071 0 2.5Z" transform="translate(394 52)" id="Ellipse-2-Copy-460" fill="#FFFFFF" fill-opacity="0.29803923" fill-rule="evenodd" stroke="none" />
  <path d="M0 2.5C0 1.11929 1.11929 0 2.5 0C3.88071 0 5 1.11929 5 2.5C5 3.88071 3.88071 5 2.5 5C1.11929 5 0 3.88071 0 2.5Z" transform="translate(507 123)" id="Ellipse-2-Copy-429" fill="#FFFFFF" fill-opacity="0.29803923" fill-rule="evenodd" stroke="none" />
  <path d="M0 2.5C0 1.11929 1.11929 0 2.5 0C3.88071 0 5 1.11929 5 2.5C5 3.88071 3.88071 5 2.5 5C1.11929 5 0 3.88071 0 2.5Z" transform="translate(438 13)" id="Ellipse-2-Copy-420" fill="#FFFFFF" fill-opacity="0.29803923" fill-rule="evenodd" stroke="none" />
  <path d="M0 2.5C0 1.11929 1.11929 0 2.5 0C3.88071 0 5 1.11929 5 2.5C5 3.88071 3.88071 5 2.5 5C1.11929 5 0 3.88071 0 2.5Z" transform="translate(796 8)" id="Ellipse-2-Copy-435" fill="#FFFFFF" fill-opacity="0.29803923" fill-rule="evenodd" stroke="none" />
  <path d="M0 2.5C0 1.11929 1.11929 0 2.5 0C3.88071 0 5 1.11929 5 2.5C5 3.88071 3.88071 5 2.5 5C1.11929 5 0 3.88071 0 2.5Z" transform="translate(696 39)" id="Ellipse-2-Copy-437" fill="#FFFFFF" fill-opacity="0.29803923" fill-rule="evenodd" stroke="none" />
  <path d="M0 2.5C0 1.11929 1.11929 0 2.5 0C3.88071 0 5 1.11929 5 2.5C5 3.88071 3.88071 5 2.5 5C1.11929 5 0 3.88071 0 2.5Z" transform="translate(523 39)" id="Ellipse-2-Copy-428" fill="#FFFFFF" fill-opacity="0.29803923" fill-rule="evenodd" stroke="none" />
  <path d="M0 2.5C0 1.11929 1.11929 0 2.5 0C3.88071 0 5 1.11929 5 2.5C5 3.88071 3.88071 5 2.5 5C1.11929 5 0 3.88071 0 2.5Z" transform="translate(757 25)" id="Ellipse-2-Copy-465" fill="#FFFFFF" fill-opacity="0.29803923" fill-rule="evenodd" stroke="none" />
  <path d="M0 2.5C0 1.11929 1.11929 0 2.5 0C3.88071 0 5 1.11929 5 2.5C5 3.88071 3.88071 5 2.5 5C1.11929 5 0 3.88071 0 2.5Z" transform="translate(582 13)" id="Ellipse-2-Copy-434" fill="#FFFFFF" fill-opacity="0.29803923" fill-rule="evenodd" stroke="none" />
  <path d="M0 2.5C0 1.11929 1.11929 0 2.5 0C3.88071 0 5 1.11929 5 2.5C5 3.88071 3.88071 5 2.5 5C1.11929 5 0 3.88071 0 2.5Z" transform="translate(150 32)" id="Ellipse-2-Copy-410" fill="#FFFFFF" fill-opacity="0.29803923" fill-rule="evenodd" stroke="none" />
  <path d="M0 2.5C0 1.11929 1.11929 0 2.5 0C3.88071 0 5 1.11929 5 2.5C5 3.88071 3.88071 5 2.5 5C1.11929 5 0 3.88071 0 2.5Z" transform="translate(79 34)" id="Ellipse-2-Copy-407" fill="#FFFFFF" fill-opacity="0.29803923" fill-rule="evenodd" stroke="none" />
  <path d="M0 2.5C0 1.11929 1.11929 0 2.5 0C3.88071 0 5 1.11929 5 2.5C5 3.88071 3.88071 5 2.5 5C1.11929 5 0 3.88071 0 2.5Z" transform="translate(23 11)" id="Ellipse-2-Copy-456" fill="#FFFFFF" fill-opacity="0.29803923" fill-rule="evenodd" stroke="none" />
  <path d="M0 2.5C0 1.11929 1.11929 0 2.5 0C3.88071 0 5 1.11929 5 2.5C5 3.88071 3.88071 5 2.5 5C1.11929 5 0 3.88071 0 2.5Z" transform="translate(172 160)" id="Ellipse-2-Copy-402" fill="#FFFFFF" fill-opacity="0.29803923" fill-rule="evenodd" stroke="none" />
  <path d="M0 2.5C0 1.11929 1.11929 0 2.5 0C3.88071 0 5 1.11929 5 2.5C5 3.88071 3.88071 5 2.5 5C1.11929 5 0 3.88071 0 2.5Z" transform="translate(145 209)" id="Ellipse-2-Copy-450" fill="#FFFFFF" fill-opacity="0.29803923" fill-rule="evenodd" stroke="none" />
  <path d="M0 2.5C0 1.11929 1.11929 0 2.5 0C3.88071 0 5 1.11929 5 2.5C5 3.88071 3.88071 5 2.5 5C1.11929 5 0 3.88071 0 2.5Z" transform="translate(226 160)" id="Ellipse-2-Copy-449" fill="#FFFFFF" fill-opacity="0.29803923" fill-rule="evenodd" stroke="none" />
  <path d="M0 2.5C0 1.11929 1.11929 0 2.5 0C3.88071 0 5 1.11929 5 2.5C5 3.88071 3.88071 5 2.5 5C1.11929 5 0 3.88071 0 2.5Z" transform="translate(197 300)" id="Ellipse-2-Copy-418" fill="#FFFFFF" fill-opacity="0.29803923" fill-rule="evenodd" stroke="none" />
  <path d="M0 2.5C0 1.11929 1.11929 0 2.5 0C3.88071 0 5 1.11929 5 2.5C5 3.88071 3.88071 5 2.5 5C1.11929 5 0 3.88071 0 2.5Z" transform="translate(150 251.69995)" id="Ellipse-2-Copy-463" fill="#FFFFFF" fill-opacity="0.29803923" fill-rule="evenodd" stroke="none" />
  <path d="M0 2.5C0 1.11929 1.11929 0 2.5 0C3.88071 0 5 1.11929 5 2.5C5 3.88071 3.88071 5 2.5 5C1.11929 5 0 3.88071 0 2.5Z" transform="translate(265 300)" id="Ellipse-2-Copy-453" fill="#FFFFFF" fill-opacity="0.29803923" fill-rule="evenodd" stroke="none" />
  <path d="M0 2.5C0 1.11929 1.11929 0 2.5 0C3.88071 0 5 1.11929 5 2.5C5 3.88071 3.88071 5 2.5 5C1.11929 5 0 3.88071 0 2.5Z" transform="translate(150 123)" id="Ellipse-2-Copy-413" fill="#FFFFFF" fill-opacity="0.29803923" fill-rule="evenodd" stroke="none" />
  <path d="M0 2.5C0 1.11929 1.11929 0 2.5 0C3.88071 0 5 1.11929 5 2.5C5 3.88071 3.88071 5 2.5 5C1.11929 5 0 3.88071 0 2.5Z" transform="translate(50 155)" id="Ellipse-2-Copy-412" fill="#FFFFFF" fill-opacity="0.29803923" fill-rule="evenodd" stroke="none" />
  <path d="M0 2.5C0 1.11929 1.11929 0 2.5 0C3.88071 0 5 1.11929 5 2.5C5 3.88071 3.88071 5 2.5 5C1.11929 5 0 3.88071 0 2.5Z" transform="translate(82 100)" id="Ellipse-2-Copy-409" fill="#FFFFFF" fill-opacity="0.29803923" fill-rule="evenodd" stroke="none" />
  <path d="M0 2.5C0 1.11929 1.11929 0 2.5 0C3.88071 0 5 1.11929 5 2.5C5 3.88071 3.88071 5 2.5 5C1.11929 5 0 3.88071 0 2.5Z" transform="translate(123 64)" id="Ellipse-2-Copy-459" fill="#FFFFFF" fill-opacity="0.29803923" fill-rule="evenodd" stroke="none" />
  <path d="M0 2.5C0 1.11929 1.11929 0 2.5 0C3.88071 0 5 1.11929 5 2.5C5 3.88071 3.88071 5 2.5 5C1.11929 5 0 3.88071 0 2.5Z" transform="translate(87 207)" id="Ellipse-2-Copy-411" fill="#FFFFFF" fill-opacity="0.29803923" fill-rule="evenodd" stroke="none" />
  <path d="M0 2.5C0 1.11929 1.11929 0 2.5 0C3.88071 0 5 1.11929 5 2.5C5 3.88071 3.88071 5 2.5 5C1.11929 5 0 3.88071 0 2.5Z" transform="translate(104 173)" id="Ellipse-2-Copy-458" fill="#FFFFFF" fill-opacity="0.29803923" fill-rule="evenodd" stroke="none" />
  <path d="M0 2.5C0 1.11929 1.11929 0 2.5 0C3.88071 0 5 1.11929 5 2.5C5 3.88071 3.88071 5 2.5 5C1.11929 5 0 3.88071 0 2.5Z" transform="translate(299 246)" id="Ellipse-2-Copy-415" fill="#FFFFFF" fill-opacity="0.29803923" fill-rule="evenodd" stroke="none" />
  <path d="M0 2.5C0 1.11929 1.11929 0 2.5 0C3.88071 0 5 1.11929 5 2.5C5 3.88071 3.88071 5 2.5 5C1.11929 5 0 3.88071 0 2.5Z" transform="translate(370 229)" id="Ellipse-2-Copy-426" fill="#FFFFFF" fill-opacity="0.29803923" fill-rule="evenodd" stroke="none" />
  <path d="M0 2.5C0 1.11929 1.11929 0 2.5 0C3.88071 0 5 1.11929 5 2.5C5 3.88071 3.88071 5 2.5 5C1.11929 5 0 3.88071 0 2.5Z" transform="translate(336 295)" id="Ellipse-2-Copy-425" fill="#FFFFFF" fill-opacity="0.29803923" fill-rule="evenodd" stroke="none" />
  <path d="M0 2.5C0 1.11929 1.11929 0 2.5 0C3.88071 0 5 1.11929 5 2.5C5 3.88071 3.88071 5 2.5 5C1.11929 5 0 3.88071 0 2.5Z" transform="translate(394 154)" id="Ellipse-2-Copy-423" fill="#FFFFFF" fill-opacity="0.29803923" fill-rule="evenodd" stroke="none" />
  <path d="M0 2.5C0 1.11929 1.11929 0 2.5 0C3.88071 0 5 1.11929 5 2.5C5 3.88071 3.88071 5 2.5 5C1.11929 5 0 3.88071 0 2.5Z" transform="translate(249 229)" id="Ellipse-2-Copy-462" fill="#FFFFFF" fill-opacity="0.29803923" fill-rule="evenodd" stroke="none" />
  <path d="M0 2.5C0 1.11929 1.11929 0 2.5 0C3.88071 0 5 1.11929 5 2.5C5 3.88071 3.88071 5 2.5 5C1.11929 5 0 3.88071 0 2.5Z" transform="translate(475 64)" id="Ellipse-2-Copy-464" fill="#FFFFFF" fill-opacity="0.29803923" fill-rule="evenodd" stroke="none" />
  <path d="M0 2.5C0 1.11929 1.11929 0 2.5 0C3.88071 0 5 1.11929 5 2.5C5 3.88071 3.88071 5 2.5 5C1.11929 5 0 3.88071 0 2.5Z" transform="translate(331 150)" id="Ellipse-2-Copy-447" fill="#FFFFFF" fill-opacity="0.29803923" fill-rule="evenodd" stroke="none" />
  <path d="M0 2.5C0 1.11929 1.11929 0 2.5 0C3.88071 0 5 1.11929 5 2.5C5 3.88071 3.88071 5 2.5 5C1.11929 5 0 3.88071 0 2.5Z" transform="translate(202 234)" id="Ellipse-2-Copy-419" fill="#FFFFFF" fill-opacity="0.29803923" fill-rule="evenodd" stroke="none" />
  <path d="M0 2.5C0 1.11929 1.11929 0 2.5 0C3.88071 0 5 1.11929 5 2.5C5 3.88071 3.88071 5 2.5 5C1.11929 5 0 3.88071 0 2.5Z" transform="translate(55 277)" id="Ellipse-2-Copy-451" fill="#FFFFFF" fill-opacity="0.29803923" fill-rule="evenodd" stroke="none" />
  <path d="M0 2.5C0 1.11929 1.11929 0 2.5 0C3.88071 0 5 1.11929 5 2.5C5 3.88071 3.88071 5 2.5 5C1.11929 5 0 3.88071 0 2.5Z" transform="translate(109 295)" id="Ellipse-2-Copy-414" fill="#FFFFFF" fill-opacity="0.29803923" fill-rule="evenodd" stroke="none" />
  <path d="M0 2.5C0 1.11929 1.11929 0 2.5 0C3.88071 0 5 1.11929 5 2.5C5 3.88071 3.88071 5 2.5 5C1.11929 5 0 3.88071 0 2.5Z" transform="translate(109 355)" id="Ellipse-2-Copy-452" fill="#FFFFFF" fill-opacity="0.29803923" fill-rule="evenodd" stroke="none" />
  <path d="M0 2.5C0 1.11929 1.11929 0 2.5 0C3.88071 0 5 1.11929 5 2.5C5 3.88071 3.88071 5 2.5 5C1.11929 5 0 3.88071 0 2.5Z" transform="translate(21 239.30005)" id="Ellipse-2-Copy-408" fill="#FFFFFF" fill-opacity="0.29803923" fill-rule="evenodd" stroke="none" />
  <path d="M0 2.5C0 1.11929 1.11929 0 2.5 0C3.88071 0 5 1.11929 5 2.5C5 3.88071 3.88071 5 2.5 5C1.11929 5 0 3.88071 0 2.5Z" transform="translate(47 69)" id="Ellipse-2-Copy-406" fill="#FFFFFF" fill-opacity="0.29803923" fill-rule="evenodd" stroke="none" />
  <path d="M0 2.5C0 1.11929 1.11929 0 2.5 0C3.88071 0 5 1.11929 5 2.5C5 3.88071 3.88071 5 2.5 5C1.11929 5 0 3.88071 0 2.5Z" transform="translate(23 113)" id="Ellipse-2-Copy-457" fill="#FFFFFF" fill-opacity="0.29803923" fill-rule="evenodd" stroke="none" />
  <path d="M0 2.5C0 1.11929 1.11929 0 2.5 0C3.88071 0 5 1.11929 5 2.5C5 3.88071 3.88071 5 2.5 5C1.11929 5 0 3.88071 0 2.5Z" transform="translate(52 340)" id="Ellipse-2-Copy-405" fill="#FFFFFF" fill-opacity="0.29803923" fill-rule="evenodd" stroke="none" />
  <g id="Group" transform="translate(54 142)">
    <path d="M26 0L52 116L0 116L26 0Z" id="Triangle" fill="#333B49" fill-rule="evenodd" stroke="none" />
    <path d="M0 110.423L26 0L26 110.423L0 110.423Z" transform="translate(0.8965454 4.461548)" id="New-shape-4" fill="#0F1216" fill-rule="evenodd" stroke="none" />
  </g>
  <g id="Group-Copy-2" transform="translate(174 200)">
    <path d="M19 0L38 92L0 92L19 0Z" id="Triangle" fill="#333B49" fill-rule="evenodd" stroke="none" />
    <path d="M0 87.5769L19 0L19 87.5769L0 87.5769Z" transform="translate(0.6551819 3.5384521)" id="New-shape-4" fill="#0F1216" fill-rule="evenodd" stroke="none" />
  </g>
  <g id="Group-Copy-4" transform="translate(774 230)">
    <path d="M19 0L38 92L0 92L19 0Z" id="Triangle" fill="#333B49" fill-rule="evenodd" stroke="none" />
    <path d="M0 87.5769L19 0L19 87.5769L0 87.5769Z" transform="translate(0.65515137 3.5384521)" id="New-shape-4" fill="#0F1216" fill-rule="evenodd" stroke="none" />
  </g>
  <g id="Group-Copy-5" transform="translate(737 244)">
    <path d="M17.5 0L35 93L0 93L17.5 0Z" id="Triangle" fill="#333B49" fill-rule="evenodd" stroke="none" />
    <path d="M0 88.5288L17.5 0L17.5 88.5288L0 88.5288Z" transform="translate(0.6035156 3.5769043)" id="New-shape-4" fill="#0F1216" fill-rule="evenodd" stroke="none" />
  </g>
  <g id="Group-Copy" transform="translate(31 169)">
    <path d="M18 0L36 114L0 114L18 0Z" id="Triangle" fill="#333B49" fill-rule="evenodd" stroke="none" />
    <path d="M0 108.519L18 0L18 108.519L0 108.519Z" transform="translate(0.620697 4.3846436)" id="New-shape-4" fill="#0F1216" fill-rule="evenodd" stroke="none" />
  </g>
  <g id="Group-Copy-3" transform="translate(147 221)">
    <path d="M18 0L36 114L0 114L18 0Z" id="Triangle" fill="#333B49" fill-rule="evenodd" stroke="none" />
    <path d="M0 108.519L18 0L18 108.519L0 108.519Z" transform="translate(0.620697 4.3846436)" id="New-shape-4" fill="#0F1216" fill-rule="evenodd" stroke="none" />
  </g>
  <path d="M0 0L358 92C358 92 258.973 105.375 169.473 128C79.9734 150.625 0 182.5 0 182.5L0 0Z" transform="translate(1 228)" id="New-shape-3" fill="url(#gradient_2)" fill-rule="evenodd" stroke="none" />
  <path d="M0 105.281C0 105.281 264.5 1.90635 499.5 0.092731C734.5 -1.72088 828 23.6693 828 23.6693L828 682L0 682L0 105.281Z" transform="translate(0 293.8977)" id="Rectangle-4" fill="url(#gradient_3)" fill-rule="evenodd" stroke="none" />
  <g id="love-birds-silhouette-1" transform="matrix(-1 0 0 1 701.43835 102.772095)">
    <path d="M76.6368 0.194504C74.4678 0.869285 71.1903 3.39973 68.9973 6.12297C68.0333 7.32794 66.9247 9.08719 66.1053 10.8224C64.4666 14.1722 63.8159 15.1603 61.5023 17.8112C58.0802 21.7153 55.8872 25.3543 55.0678 28.5354C54.1761 32.0058 54.0556 42.4167 54.8509 46.4895C56.2005 53.2855 57.8874 59.5514 59.7913 64.7569C60.5625 66.9258 61.2132 68.902 61.2132 69.143C61.2132 69.6732 60.6589 69.8419 57.3572 70.4443C48.8019 72.0349 40.9937 72.1313 35.0653 70.7817C33.8844 70.5166 30.9684 69.5527 28.5825 68.6128C20.2923 65.3835 9.54397 63.2868 3.06123 63.6724C-0.1199 63.8411 0.000597586 63.7206 0.000597586 66.3474C0.000597586 68.3718 0.0487964 68.661 0.699481 69.6732C1.68756 71.2396 2.89253 71.7457 6.29055 72.0349C13.2071 72.6374 19.0873 73.987 22.7264 75.8185C25.1604 77.0235 27.233 79.6503 27.233 81.4819C27.233 82.4699 26.7992 83.1929 24.7507 85.6511C22.63 88.1815 22.2685 88.9045 22.7505 89.8203C23.2083 90.712 25.305 92.664 26.3654 93.146C27.1607 93.5316 27.2571 93.5316 28.4861 93.0255C29.185 92.7363 32.3661 91.0975 35.5473 89.4106C47.7416 82.8796 52.1036 81.0963 59.5985 79.6262C65.1414 78.5417 65.6715 78.7345 68.1297 83.0001C69.8166 85.8921 72.2507 90.8807 72.7568 92.4953C73.3593 94.3751 73.8412 98.8335 74.4437 108.57C74.6847 112.642 75.0221 116.04 75.1667 116.33C75.8656 117.631 77.7213 117.077 80.6614 114.691C81.4808 114.04 82.252 113.486 82.3484 113.486C82.4447 113.486 83.1436 113.968 83.8666 114.57C85.7464 116.137 88.7588 116.884 90.1566 116.137C90.8313 115.775 90.7591 114.86 89.6746 110.208C87.4574 100.689 86.6862 95.3391 86.6621 89.025C86.638 85.3137 86.7344 84.0605 87.0959 82.4459C87.7707 79.5539 87.7948 79.5298 89.6023 80.5902C92.5183 82.3013 93.5787 82.4699 104.351 83.0001C112.497 83.4098 113.413 83.5062 113.605 83.9882C113.919 84.8076 114.328 90.9047 114.328 95.0499L114.352 99.6288L113.22 102.882C111.894 106.762 110.207 110.763 107.364 116.98C105.773 120.402 105.315 121.632 105.508 121.921C105.918 122.547 108.062 122.33 109.966 121.463C110.882 121.053 111.798 120.716 111.991 120.716C112.183 120.716 112.81 121.101 113.364 121.559L114.401 122.403L117.076 122.403L119.775 122.403L120.233 121.511C120.859 120.258 121.365 118.45 123.751 109.148C126.908 96.8573 127.944 93.7967 129.366 92.7845C129.728 92.5194 131.535 91.8687 133.391 91.3144C137.391 90.1095 138.428 89.6034 143.199 86.5187C154.237 79.3852 166.407 73.5773 182.313 67.8657C190.314 64.9979 195.567 63.5519 204.918 61.6962C211.883 60.2985 214.534 59.5996 215.305 58.9971C216.413 58.1295 216.895 56.2257 216.895 52.7313C216.895 49.3091 216.703 48.7067 215.425 48.0319C213.57 47.092 211.329 47.5981 195.085 52.6349C179.806 57.3825 176.963 58.0572 170.504 58.5392C166.238 58.8525 164.455 59.2381 162.696 60.2985C160.985 61.3107 160.334 62.2264 160.069 63.9134C159.804 65.5522 159.418 66.01 157.49 67.0945C154.984 68.4923 143.151 74.0593 143.151 73.8424C143.151 73.7942 143.657 73.1676 144.284 72.4687C149.248 66.8535 152.213 60.2985 153.369 52.2734C154.502 44.417 153.9 36.2954 151.707 29.6922C151.08 27.7884 150.333 26.2219 148.911 23.9083C147.851 22.1491 146.115 19.1126 145.031 17.1605C143.971 15.1844 142.573 12.8708 141.898 11.9791C139.488 8.7016 136.331 6.38806 132.909 5.37588C131.053 4.8216 127.679 4.8216 125.559 5.39998C122.474 6.19526 120.691 7.30384 114.714 12.0514C110.954 15.0157 110.014 15.9555 110.207 16.4616C110.28 16.6544 110.93 16.9195 111.653 17.0882C114.376 17.6425 117.991 20.5585 119.293 23.2336C120.136 24.9446 120.642 27.8125 120.401 29.4994C120.281 30.2947 119.341 32.3672 117.582 35.7653C114.834 41.1153 113.581 44.3929 112.738 48.3693C112.328 50.3213 112.232 51.936 112.135 58.0572C112.063 62.7807 112.111 66.7089 112.304 69.0225C112.473 70.9986 112.617 72.9025 112.617 73.2399C112.665 73.6978 112.521 73.8665 112.135 73.9146C111.34 74.0351 92.9762 69.8901 92.5906 69.5045C92.5183 69.4322 93.5064 67.2391 94.7837 64.6123C97.6997 58.6356 99.1457 54.1531 100.543 46.851C101.025 44.2965 101.098 43.2361 101.098 37.6932C101.098 31.7889 101.074 31.331 100.543 29.8127C99.2902 26.2219 95.121 21.7876 91.5061 20.2452C90.8795 19.9801 90.3735 19.6186 90.3735 19.474C90.3735 19.3294 91.1205 18.4619 92.0363 17.5702C94.1089 15.5458 96.0609 14.5337 98.9529 14.0276C100.134 13.8348 101.242 13.5697 101.411 13.4251C102.206 12.7744 101.266 11.6176 98.2299 9.49689C97.0249 8.6534 96.1332 7.71353 94.9524 6.12297C93.0485 3.52022 92.0604 2.65265 89.771 1.51997C87.0718 0.194504 85.9392 -0.0223892 81.3362 0.00171166C79.0949 0.00171166 76.9742 0.0981079 76.6368 0.194504L76.6368 0.194504Z" id="Shape" fill="#000000" fill-rule="evenodd" stroke="none" />
    <path d="M486.005 34.8436L303.114 14.3613C303.114 14.3613 307.023 2.46964 303.114 2.46965C299.206 2.46967 287.479 14.3613 287.479 14.3613C287.479 14.3613 204.8 2.181 196.932 2.46965C189.063 2.75831 85.5635 15.5159 85.5635 15.5159L93.795 2.46965C93.795 2.46965 90.8898 -3.08707 85.5635 2.46965C80.2372 8.02638 75.9197 21.757 70.553 24.6965C65.1863 27.636 0 34.8436 0 34.8436L0 70.3256L162.553 24.6965C162.553 24.6965 191.605 34.8436 196.932 34.8436C202.258 34.8436 183.858 24.6965 183.858 24.6965C183.858 24.6965 189.184 12.1335 196.932 15.5159C204.679 18.8982 486.005 45.957 486.005 45.957L486.005 34.8436Z" transform="matrix(-1 0 0 1 700 12.8573)" id="New-shape-4" fill="#000000" fill-rule="evenodd" stroke="none" />
  </g>
</svg>