<?xml version="1.0" encoding="utf-8"?>
<svg width="474px" height="78px" viewBox="0 0 474 78" version="1.1" xmlns:xlink="http://www.w3.org/1999/xlink" xmlns="http://www.w3.org/2000/svg">
  <g id="Welcome-to-Falconry" fill="#FFFFFF">
    <path d="M6.375 45.1563Q6.89063 43.0234 7.72266 40.7031Q8.55469 38.3828 9.46875 35.9688Q10.3828 33.5547 11.2734 31.0586Q12.1641 28.5625 12.7969 26.0781Q12.9609 25.4688 13.0781 24.9531Q13.1953 24.4375 13.3125 23.8516Q13.5938 23.2422 14.0742 22.9141Q14.5547 22.5859 15.1172 22.5859Q15.6328 22.5859 16.0898 22.75Q16.5469 22.9141 16.8867 23.2773Q17.2266 23.6406 17.4258 24.2031Q17.625 24.7656 17.625 25.5391Q17.625 26.3828 17.3672 27.4609Q16.4531 29.8047 15.5156 32.0547Q14.5781 34.3047 13.6992 36.4609Q12.8203 38.6172 12.0703 40.7266Q11.3203 42.8359 10.7813 44.8984Q10.7344 45.0625 10.5938 45.6133Q10.4531 46.1641 10.3008 46.9375Q10.1484 47.7109 10.0313 48.5898Q9.91406 49.4688 9.91406 50.2891Q9.91406 50.8516 9.98438 51.3555Q10.0547 51.8594 10.2188 52.2344Q10.3828 52.6094 10.6641 52.8203Q10.9453 53.0313 11.3672 53.0313Q12.2578 53.0313 13.5469 52.1055Q14.8359 51.1797 16.3359 49.5859Q17.8359 47.9922 19.418 45.8594Q21 43.7266 22.5 41.2891Q24 38.8516 25.2891 36.2734Q26.5781 33.6953 27.4688 31.1875Q27.6797 30.7422 27.9844 30.6133Q28.2891 30.4844 28.7813 30.4844Q29.6953 30.4844 30.3164 31.0352Q30.9375 31.5859 30.9375 32.4531Q30.9375 32.6641 30.8906 32.8516Q30.8438 33.0391 30.75 33.2969L30.4219 34.2578Q30.0469 35.3594 29.707 36.2852Q29.3672 37.2109 29.1563 38.0313Q28.8516 39.2031 28.6641 40.1758Q28.4766 41.1484 28.3711 42.0039Q28.2656 42.8594 28.2305 43.6797Q28.1953 44.5 28.1953 45.3438Q28.1953 45.6719 28.2539 46.3047Q28.3125 46.9375 28.4297 47.6992Q28.5469 48.4609 28.7461 49.2461Q28.9453 50.0313 29.2148 50.6875Q29.4844 51.3438 29.8477 51.7539Q30.2109 52.1641 30.6797 52.1641Q31.4063 52.1641 32.2148 51.5664Q33.0234 50.9688 33.8438 49.9258Q34.6641 48.8828 35.4961 47.4766Q36.3281 46.0703 37.1133 44.4531Q37.8984 42.8359 38.6133 41.1016Q39.3281 39.3672 39.9258 37.668Q40.5234 35.9688 40.9805 34.3867Q41.4375 32.8047 41.7188 31.4922Q41.9766 30.25 42.1641 29.0781L42.5391 26.7344Q42.7266 25.5625 42.9492 24.3789Q43.1719 23.1953 43.5 21.9531Q43.6172 21.5078 43.8516 21.0391Q44.0859 20.5703 44.4258 20.1836Q44.7656 19.7969 45.1641 19.5508Q45.5625 19.3047 45.9844 19.3047Q47.0391 19.3047 47.4141 19.8789Q47.7891 20.4531 47.7891 21.7891Q47.7891 22.7734 47.6133 24.0859Q47.4375 25.3984 47.168 26.8398Q46.8984 28.2813 46.5703 29.7578Q46.2422 31.2344 45.9141 32.5469Q45.2578 35.2188 44.1797 38.0898Q43.1016 40.9609 41.7773 43.6914Q40.4531 46.4219 38.9648 48.8359Q37.4766 51.25 35.9766 52.9844Q35.4609 53.5938 34.7578 54.2266Q34.0547 54.8594 33.2461 55.375Q32.4375 55.8906 31.6055 56.2305Q30.7734 56.5703 30 56.5703Q28.3828 56.5703 27.293 55.6211Q26.2031 54.6719 25.5117 53.0898Q24.8203 51.5078 24.457 49.4805Q24.0938 47.4531 23.9297 45.2969Q22.6172 47.2422 21.5273 48.7656Q20.4375 50.2891 19.3125 51.5781Q18.4688 52.5391 17.4141 53.6523Q16.3594 54.7656 15.1758 55.7148Q13.9922 56.6641 12.75 57.2852Q11.5078 57.9063 10.3125 57.9063Q8.92969 57.9063 8.00391 57.4258Q7.07813 56.9453 6.51563 56.1016Q5.95313 55.2578 5.70703 54.1094Q5.46094 52.9609 5.46094 51.625Q5.46094 50.0781 5.71875 48.4375Q5.97656 46.7969 6.375 45.1563ZM79.8516 23.5234Q79.7344 24.4609 79.6641 25.2578L73.6172 49.2578Q73.5 49.7031 73.3828 50.3008Q73.2656 50.8984 73.1602 51.4961Q73.0547 52.0938 72.9844 52.6445Q72.9141 53.1953 72.9141 53.5703Q72.9141 53.9922 73.0547 54.4727Q73.1953 54.9531 73.5 55.375Q73.8047 55.7969 74.2734 56.0664Q74.7422 56.3359 75.375 56.3359Q76.1016 56.3359 76.5586 55.8555Q77.0156 55.375 77.2734 54.6602Q77.5313 53.9453 77.625 53.1133Q77.7188 52.2813 77.7188 51.5781L77.7188 51.0156Q77.8359 50.1953 78.0703 48.918Q78.3047 47.6406 78.6563 46.2344L84.5156 22.75Q84.5625 22.5156 84.6328 22.2695Q84.7031 22.0234 84.7031 21.8359Q84.7031 21.4141 84.4219 21.0625Q84.1406 20.7109 83.7305 20.4648Q83.3203 20.2188 82.8633 20.0781Q82.4063 19.9375 82.0313 19.9375Q81.3516 19.9375 80.918 20.4648Q80.4844 20.9922 80.2266 21.7891Q79.9688 22.5859 79.8516 23.5234ZM349.852 25.2578Q349.922 24.4609 350.039 23.5234Q350.156 22.5859 350.414 21.7891Q350.672 20.9922 351.105 20.4648Q351.539 19.9375 352.219 19.9375Q352.594 19.9375 353.051 20.0781Q353.508 20.2188 353.918 20.4648Q354.328 20.7109 354.609 21.0625Q354.891 21.4141 354.891 21.8359Q354.891 22.0234 354.82 22.2695Q354.75 22.5156 354.703 22.75L348.844 46.2344Q348.492 47.6406 348.258 48.918Q348.023 50.1953 347.906 51.0156L347.906 51.5781Q347.906 52.2813 347.813 53.1133Q347.719 53.9453 347.461 54.6602Q347.203 55.375 346.746 55.8555Q346.289 56.3359 345.563 56.3359Q344.93 56.3359 344.461 56.0664Q343.992 55.7969 343.688 55.375Q343.383 54.9531 343.242 54.4727Q343.102 53.9922 343.102 53.5703Q343.102 53.1953 343.172 52.6445Q343.242 52.0938 343.348 51.4961Q343.453 50.8984 343.57 50.3008Q343.688 49.7031 343.805 49.2578L349.852 25.2578ZM304.57 30.3438Q304.383 30.625 304.09 31.3164Q303.797 32.0078 303.48 32.9102Q303.164 33.8125 302.848 34.8203Q302.531 35.8281 302.262 36.707Q301.992 37.5859 301.805 38.2539Q301.617 38.9219 301.57 39.1328Q301.523 39.3906 301.395 39.9063L301.172 40.7969Q303.797 39.9063 306.363 39.3203Q308.93 38.7344 311.508 38.7344Q311.906 38.7344 312.563 38.7578Q313.219 38.7813 313.852 38.9336Q314.484 39.0859 314.941 39.4141Q315.398 39.7422 315.398 40.3516Q315.398 40.375 315.375 40.6445Q315.352 40.9141 315.234 41.2656Q315.117 41.6172 314.871 41.9688Q314.625 42.3203 314.203 42.4844Q313.945 42.4609 313.699 42.4609L313.195 42.4609Q311.531 42.4609 309.855 42.7539Q308.18 43.0469 306.48 43.5508Q304.781 44.0547 303.094 44.7461Q301.406 45.4375 299.719 46.2109L297.352 56.4531Q297.305 56.8516 296.965 57.168Q296.625 57.4844 296.297 57.4844L295.734 57.4844Q294.844 57.4844 294.504 56.7578Q294.164 56.0313 294.164 54.8828Q294.164 53.9219 294.328 52.7852Q294.492 51.6484 294.703 50.5703Q294.914 49.4922 295.078 48.6016Q295.242 47.7109 295.242 47.2422Q294.961 46.8438 294.68 46.3984Q294.398 45.9531 294.398 45.2969Q294.398 44.2656 294.938 43.6563Q295.477 43.0469 296.367 42.4609Q296.461 42.3906 296.566 42.2031Q296.672 42.0156 296.754 41.7813Q296.836 41.5469 296.895 41.3125Q296.953 41.0781 297 40.9141L297.961 37.4453Q298.523 35.4063 298.969 33.8711Q299.414 32.3359 299.789 31.1172Q300.164 29.8984 300.48 28.9258Q300.797 27.9531 301.102 27.0391Q301.195 26.7344 301.418 26.1719Q301.641 25.6094 301.957 25.0703Q302.273 24.5313 302.672 24.1328Q303.07 23.7344 303.539 23.7344Q304.594 23.7344 304.98 23.9102Q305.367 24.0859 305.484 24.3672L305.695 24.8828Q306.07 24.8359 306.762 24.707Q307.453 24.5781 308.191 24.4141Q308.93 24.25 309.563 24.0977Q310.195 23.9453 310.477 23.8516Q312.047 23.4297 313.359 23.125Q314.672 22.8203 315.844 22.6211Q317.016 22.4219 318.094 22.3281Q319.172 22.2344 320.273 22.2344Q320.789 22.2344 321.234 22.2813Q321.68 22.3281 321.996 22.457Q322.313 22.5859 322.5 22.832Q322.688 23.0781 322.688 23.4766Q322.688 23.6875 322.594 24.0039Q322.5 24.3203 322.289 24.6367Q322.078 24.9531 321.715 25.2344Q321.352 25.5156 320.813 25.6563Q320.648 25.7031 320.227 25.7852Q319.805 25.8672 319.254 25.9609Q318.703 26.0547 318.082 26.1602Q317.461 26.2656 316.898 26.3594Q316.008 26.5703 314.895 26.8164Q313.781 27.0625 312.574 27.3672Q311.367 27.6719 310.148 28.0234Q308.93 28.375 307.852 28.75Q306.773 29.125 305.918 29.5234Q305.063 29.9219 304.57 30.3438ZM222.305 48.3672Q222.305 46.3984 222.75 44.2773Q223.195 42.1563 223.688 40.2109Q223.078 40.1875 222.445 40.0234Q221.813 39.8594 221.297 39.5781Q220.781 39.2969 220.453 38.8867Q220.125 38.4766 220.125 37.9375Q220.125 37.7266 220.219 37.3984Q220.313 37.0703 220.488 36.7539Q220.664 36.4375 220.945 36.2148Q221.227 35.9922 221.578 35.9922L224.719 35.9922Q225.164 35.9922 225.328 35.6055Q225.492 35.2188 225.586 34.8438Q225.891 33.4844 226.16 32.4883Q226.43 31.4922 226.617 30.8008Q226.805 30.1094 226.91 29.6758Q227.016 29.2422 227.016 28.9844Q227.016 28.6797 226.992 28.3984Q226.969 28.1172 226.969 27.625L226.969 27.3906Q226.969 27.2031 227.004 26.8984Q227.039 26.5938 227.227 26.0313Q227.367 25.5859 227.742 25.1875Q228.117 24.7891 228.844 24.7891Q229.477 24.7891 229.922 25.0469Q230.367 25.3047 230.648 25.7266Q230.93 26.1484 231.07 26.6875Q231.211 27.2266 231.211 27.7656Q231.211 28.3516 231.094 28.8203L229.383 35.3828Q230.648 35.1719 231.633 34.9844L233.602 34.6094Q234.68 34.3984 235.465 34.2109Q236.25 34.0234 236.813 33.8945Q237.375 33.7656 237.762 33.6836Q238.148 33.6016 238.406 33.6016Q238.781 33.6016 239.168 33.6602Q239.555 33.7188 239.848 33.8594Q240.141 34 240.328 34.2578Q240.516 34.5156 240.516 34.9375Q240.516 35.5 240.293 35.9336Q240.07 36.3672 239.719 36.6836Q239.367 37 238.922 37.1992Q238.477 37.3984 238.031 37.4922Q237.656 37.5625 237.059 37.7031Q236.461 37.8438 235.746 38.0078Q235.031 38.1719 234.258 38.3594Q233.484 38.5469 232.758 38.7344Q231.68 39.0156 230.918 39.2031Q230.156 39.3906 229.617 39.4844Q229.078 39.5781 228.738 39.625Q228.398 39.6719 228.188 39.6719Q227.742 41.0078 227.414 42.2969Q227.086 43.5859 226.863 44.6992Q226.641 45.8125 226.535 46.6914Q226.43 47.5703 226.43 48.0625Q226.43 48.6953 226.547 49.2695Q226.664 49.8438 226.945 50.2656Q227.227 50.6875 227.707 50.9336Q228.188 51.1797 228.914 51.1797Q230.156 51.1797 231.352 50.5Q232.547 49.8203 233.637 48.7773Q234.727 47.7344 235.699 46.4922Q236.672 45.25 237.492 44.125Q237.773 43.7031 238.219 43.7031Q238.359 43.7031 238.559 43.75Q238.758 43.7969 238.945 43.9141Q239.133 44.0313 239.262 44.2188Q239.391 44.4063 239.391 44.6641Q239.391 44.8516 239.367 44.9453Q238.992 46.3984 238.207 47.8633Q237.422 49.3281 236.602 50.8047Q236.32 51.3203 235.863 51.8125Q235.406 52.3047 234.867 52.7617Q234.328 53.2188 233.742 53.6289Q233.156 54.0391 232.641 54.3672Q231.75 54.9297 230.695 55.1406Q229.641 55.3516 228.656 55.3516Q227.133 55.3516 225.949 54.8008Q224.766 54.25 223.957 53.3008Q223.148 52.3516 222.727 51.0859Q222.305 49.8203 222.305 48.3672ZM130.594 54.1094Q131.297 51.3672 131.953 49Q132.609 46.6328 133.23 44.4648Q133.852 42.2969 134.438 40.2578Q135.023 38.2188 135.563 36.1094Q135.773 35.2891 135.809 34.5273Q135.844 33.7656 136.031 32.9453Q136.125 32.6641 136.371 32.4414Q136.617 32.2188 136.922 32.0547Q137.227 31.8906 137.566 31.7969Q137.906 31.7031 138.211 31.7031Q138.867 31.7031 139.301 31.8555Q139.734 32.0078 140.004 32.2656Q140.273 32.5234 140.379 32.8867Q140.484 33.25 140.484 33.6953Q140.484 34.4922 140.227 35.3008Q139.969 36.1094 139.594 37.0703Q140.695 36.2031 141.855 35.4297Q143.016 34.6563 144.246 34.0703Q145.477 33.4844 146.766 33.1328Q148.055 32.7813 149.438 32.7813Q150.07 32.7813 150.703 32.9805Q151.336 33.1797 151.84 33.6016Q152.344 34.0234 152.684 34.7031Q153.023 35.3828 153.07 36.3672Q154.078 35.6875 155.156 34.9961Q156.234 34.3047 157.348 33.7539Q158.461 33.2031 159.574 32.8633Q160.688 32.5234 161.742 32.5234Q163.313 32.5234 164.332 32.9336Q165.352 33.3438 165.949 34.0352Q166.547 34.7266 166.793 35.6406Q167.039 36.5547 167.039 37.5859Q167.039 38.7109 166.828 39.9063Q166.617 41.1016 166.359 42.1797Q165.68 44.8984 164.836 47.3242Q163.992 49.75 163.008 52.2344Q162.773 52.8203 162.516 53.4766Q162.258 54.1328 161.918 54.6836Q161.578 55.2344 161.121 55.5977Q160.664 55.9609 160.055 55.9609Q158.672 55.9609 158.156 55.4922Q157.641 55.0234 157.641 54.1563Q157.641 53.9219 157.664 53.6172Q157.688 53.3125 157.781 53.0313Q157.875 52.6797 158.203 52.0117Q158.531 51.3438 158.918 50.5703Q159.305 49.7969 159.68 49.0117Q160.055 48.2266 160.242 47.6406Q160.547 46.6328 160.957 45.3086Q161.367 43.9844 161.742 42.6367Q162.117 41.2891 162.363 40.082Q162.609 38.875 162.609 38.125Q162.609 37.7734 162.539 37.4219Q162.469 37.0703 162.293 36.8125Q162.117 36.5547 161.801 36.3906Q161.484 36.2266 160.992 36.2266Q160.289 36.2266 159.316 36.625Q158.344 37.0234 157.301 37.668Q156.258 38.3125 155.273 39.1211Q154.289 39.9297 153.586 40.7266Q153.094 41.2891 152.648 41.6406Q152.203 41.9922 151.758 42.1797Q151.711 42.2734 151.523 42.8008Q151.336 43.3281 151.078 44.0664Q150.82 44.8047 150.539 45.6602Q150.258 46.5156 150.012 47.2539Q149.766 47.9922 149.602 48.4961Q149.438 49 149.438 49.0469Q149.273 49.7031 149.156 50.3945Q149.039 51.0859 148.945 51.7188Q148.852 52.3516 148.77 53.0664Q148.688 53.7813 148.441 54.4023Q148.195 55.0234 147.691 55.4219Q147.188 55.8203 146.273 55.8203Q145.805 55.8203 145.418 55.5859Q145.031 55.3516 144.75 54.9883Q144.469 54.625 144.305 54.168Q144.141 53.7109 144.117 53.2422Q144.656 51.1328 145.172 49.4453Q145.688 47.7578 146.203 46.2109Q146.719 44.6641 147.199 43.1055Q147.68 41.5469 148.148 39.6719Q148.266 39.2266 148.336 38.793Q148.406 38.3594 148.406 38.0313Q148.406 37.4688 148.172 37.1055Q147.938 36.7422 147.352 36.7422Q146.391 36.7422 145.441 37.1289Q144.492 37.5156 143.391 38.3359Q142.289 39.1563 140.941 40.4219Q139.594 41.6875 137.836 43.4453Q137.648 43.7969 137.344 44.7578Q137.039 45.7188 136.723 46.7969Q136.406 47.875 136.148 48.8008Q135.891 49.7266 135.82 50.0313Q135.563 51.0156 135.469 51.6836Q135.375 52.3516 135.305 52.8906Q135.258 53.1719 135.164 53.8164Q135.07 54.4609 134.824 55.1172Q134.578 55.7734 134.133 56.2773Q133.688 56.7813 132.961 56.7813Q131.883 56.7813 131.191 56.1953Q130.5 55.6094 130.5 54.7188Q130.5 54.5547 130.523 54.4141Q130.547 54.2734 130.594 54.1094ZM415.641 36.8008Q416.578 36.4141 417.398 36.4141Q418.266 36.4141 418.582 36.9648Q418.898 37.5156 418.898 38.2422Q418.898 39.0156 418.688 39.9297Q418.477 40.8438 418.137 41.8516Q417.797 42.8594 417.363 43.9375Q416.93 45.0156 416.484 46.0938Q415.922 47.4297 415.441 48.7188Q414.961 50.0078 414.598 51.1445Q414.234 52.2813 414.035 53.2305Q413.836 54.1797 413.836 54.8359Q413.836 55.5859 414.188 55.9258Q414.539 56.2656 415.453 56.2656Q416.039 56.2656 416.449 56.1484Q416.859 56.0313 417.164 55.7617Q417.469 55.4922 417.691 55.0469Q417.914 54.6016 418.125 53.9453Q418.875 51.5313 419.754 49.1992Q420.633 46.8672 421.395 44.7461Q422.156 42.625 422.66 40.7734Q423.164 38.9219 423.164 37.4688Q423.164 34.9375 421.898 33.7305Q420.633 32.5234 418.383 32.5234Q417.281 32.5234 416.145 32.9102Q415.008 33.2969 413.883 33.918Q412.758 34.5391 411.691 35.3125Q410.625 36.0859 409.641 36.8594L410.672 34.4219Q410.766 34.2109 410.813 34.0234Q410.859 33.8359 410.859 33.7656Q410.859 33.0156 410.285 32.6172Q409.711 32.2188 408.82 32.2188Q408.141 32.2188 407.543 32.4883Q406.945 32.7578 406.805 33.1563Q406.148 34.9375 405.574 36.4023Q405 37.8672 404.473 39.2383Q403.945 40.6094 403.441 41.957Q402.938 43.3047 402.445 44.8281Q401.953 46.3516 401.473 48.1328Q400.992 49.9141 400.477 52.1406Q400.359 52.5859 400.336 52.9492Q400.313 53.3125 400.313 53.6406Q400.313 54.8594 400.875 55.2813Q401.438 55.7031 402.328 55.7031Q402.469 55.7031 402.727 55.668Q402.984 55.6328 403.266 55.4922Q403.547 55.3516 403.805 55.082Q404.063 54.8125 404.18 54.3672Q404.367 53.6172 404.496 53.0078Q404.625 52.3984 404.719 51.8711Q404.813 51.3438 404.883 50.875Q404.953 50.4063 405.07 49.9141Q405.281 48.9766 405.598 47.8867Q405.914 46.7969 406.266 45.7539Q406.617 44.7109 406.98 43.832Q407.344 42.9531 407.672 42.4141Q408.141 42.2266 408.609 41.8633Q409.078 41.5 409.594 41.0547Q410.602 40.1641 411.645 39.332Q412.688 38.5 413.695 37.8438Q414.703 37.1875 415.641 36.8008ZM84.8672 46.4922Q85.3125 44.6875 86.1914 42.7188Q87.0703 40.75 88.3125 38.9102Q89.5547 37.0703 91.1367 35.5117Q92.7188 33.9531 94.5938 32.9688Q95.2031 32.6406 95.9297 32.4766Q96.6563 32.3125 97.4063 32.3125Q98.1797 32.3125 98.8477 32.4531Q99.5156 32.5938 99.9961 32.9219Q100.477 33.25 100.758 33.7656Q101.039 34.2813 101.039 35.0313Q101.039 35.5938 100.875 36.168Q100.711 36.7422 100.383 37.1992Q100.055 37.6563 99.5625 37.9375Q99.0703 38.2188 98.4141 38.2188Q97.8984 38.2188 97.4648 38.0313Q97.0313 37.8438 96.6328 37.6094Q96.4219 37.4688 96.2344 37.3633Q96.0469 37.2578 95.7891 37.1641Q94.8516 37.5859 94.0195 38.2773Q93.1875 38.9688 92.4727 39.8125Q91.7578 40.6563 91.1602 41.6172Q90.5625 42.5781 90.082 43.5391Q89.6016 44.5 89.2617 45.4258Q88.9219 46.3516 88.7109 47.125Q88.5469 47.6875 88.418 48.4023Q88.2891 49.1172 88.2891 49.7969Q88.2891 50.2656 88.3711 50.6875Q88.4531 51.1094 88.6641 51.4375Q88.875 51.7656 89.2266 51.9531Q89.5781 52.1406 90.0938 52.1406Q90.9141 52.1406 91.7227 51.9297Q92.5313 51.7188 93.3047 51.3906Q94.0781 51.0625 94.8164 50.6289Q95.5547 50.1953 96.2578 49.75Q96.7031 49.4688 97.1484 49.1641Q97.5938 48.8594 97.9922 48.625Q98.3906 48.3906 98.7305 48.2383Q99.0703 48.0859 99.3281 48.0859Q99.6797 48.0859 99.9844 48.2617Q100.289 48.4375 100.289 48.8594Q100.289 49.1641 100.148 49.5391Q99.8203 50.4531 99.2578 51.1797Q98.6953 51.9063 98.0039 52.4805Q97.3125 53.0547 96.5273 53.5Q95.7422 53.9453 94.9688 54.3203Q93.5156 55.0938 92.0273 55.4805Q90.5391 55.8672 89.5313 55.8672Q89.2031 55.8672 88.7578 55.7969Q88.3125 55.7266 87.9844 55.5859Q86.0859 54.7656 85.2188 53.3828Q84.3516 52 84.3516 50.1016Q84.3516 49.2813 84.4805 48.3789Q84.6094 47.4766 84.8672 46.4922ZM356.379 42.7188Q355.5 44.6875 355.055 46.4922Q354.797 47.4766 354.668 48.3789Q354.539 49.2813 354.539 50.1016Q354.539 52 355.406 53.3828Q356.273 54.7656 358.172 55.5859Q358.5 55.7266 358.945 55.7969Q359.391 55.8672 359.719 55.8672Q360.727 55.8672 362.215 55.4805Q363.703 55.0938 365.156 54.3203Q365.93 53.9453 366.715 53.5Q367.5 53.0547 368.191 52.4805Q368.883 51.9063 369.445 51.1797Q370.008 50.4531 370.336 49.5391Q370.477 49.1641 370.477 48.8594Q370.477 48.4375 370.172 48.2617Q369.867 48.0859 369.516 48.0859Q369.258 48.0859 368.918 48.2383Q368.578 48.3906 368.18 48.625Q367.781 48.8594 367.336 49.1641Q366.891 49.4688 366.445 49.75Q365.742 50.1953 365.004 50.6289Q364.266 51.0625 363.492 51.3906Q362.719 51.7188 361.91 51.9297Q361.102 52.1406 360.281 52.1406Q359.766 52.1406 359.414 51.9531Q359.063 51.7656 358.852 51.4375Q358.641 51.1094 358.559 50.6875Q358.477 50.2656 358.477 49.7969Q358.477 49.1172 358.605 48.4023Q358.734 47.6875 358.898 47.125Q359.109 46.3516 359.449 45.4258Q359.789 44.5 360.27 43.5391Q360.75 42.5781 361.348 41.6172Q361.945 40.6563 362.66 39.8125Q363.375 38.9688 364.207 38.2773Q365.039 37.5859 365.977 37.1641Q366.234 37.2578 366.422 37.3633Q366.609 37.4688 366.82 37.6094Q367.219 37.8438 367.652 38.0313Q368.086 38.2188 368.602 38.2188Q369.258 38.2188 369.75 37.9375Q370.242 37.6563 370.57 37.1992Q370.898 36.7422 371.063 36.168Q371.227 35.5938 371.227 35.0313Q371.227 34.2813 370.945 33.7656Q370.664 33.25 370.184 32.9219Q369.703 32.5938 369.035 32.4531Q368.367 32.3125 367.594 32.3125Q366.844 32.3125 366.117 32.4766Q365.391 32.6406 364.781 32.9688Q362.906 33.9531 361.324 35.5117Q359.742 37.0703 358.5 38.9102Q357.258 40.75 356.379 42.7188ZM106.512 43.6445Q105.773 45.25 105.422 46.6797Q105 48.3672 105 49.8438Q105 51.3672 105.434 52.6094Q105.867 53.8516 106.746 54.7422Q107.625 55.6328 108.949 56.1133Q110.273 56.5938 112.078 56.5938Q113.977 56.5938 115.512 56.0898Q117.047 55.5859 118.313 54.6719Q120.188 53.3359 121.723 51.6602Q123.258 49.9844 124.336 48.1563Q125.414 46.3281 126 44.4063Q126.586 42.4844 126.586 40.6328Q126.586 39.8359 126.492 39.2031Q126.398 38.5703 126.246 38.0195Q126.094 37.4688 125.871 36.9766Q125.648 36.4844 125.391 35.9688Q124.57 34.375 123.316 33.4492Q122.063 32.5234 120.234 32.5234Q118.688 32.5234 117.773 33.5078Q117 33.5547 116.273 33.8008Q115.547 34.0469 115.195 34.2578Q112.992 35.6172 111.316 37.1875Q109.641 38.7578 108.445 40.3984Q107.25 42.0391 106.512 43.6445ZM245.613 43.6445Q244.875 45.25 244.523 46.6797Q244.102 48.3672 244.102 49.8438Q244.102 51.3672 244.535 52.6094Q244.969 53.8516 245.848 54.7422Q246.727 55.6328 248.051 56.1133Q249.375 56.5938 251.18 56.5938Q253.078 56.5938 254.613 56.0898Q256.148 55.5859 257.414 54.6719Q259.289 53.3359 260.824 51.6602Q262.359 49.9844 263.438 48.1563Q264.516 46.3281 265.102 44.4063Q265.688 42.4844 265.688 40.6328Q265.688 39.8359 265.594 39.2031Q265.5 38.5703 265.348 38.0195Q265.195 37.4688 264.973 36.9766Q264.75 36.4844 264.492 35.9688Q263.672 34.375 262.418 33.4492Q261.164 32.5234 259.336 32.5234Q257.789 32.5234 256.875 33.5078Q256.102 33.5547 255.375 33.8008Q254.648 34.0469 254.297 34.2578Q252.094 35.6172 250.418 37.1875Q248.742 38.7578 247.547 40.3984Q246.352 42.0391 245.613 43.6445ZM375.609 46.6797Q375.961 45.25 376.699 43.6445Q377.438 42.0391 378.633 40.3984Q379.828 38.7578 381.504 37.1875Q383.18 35.6172 385.383 34.2578Q385.734 34.0469 386.461 33.8008Q387.188 33.5547 387.961 33.5078Q388.875 32.5234 390.422 32.5234Q392.25 32.5234 393.504 33.4492Q394.758 34.375 395.578 35.9688Q395.836 36.4844 396.059 36.9766Q396.281 37.4688 396.434 38.0195Q396.586 38.5703 396.68 39.2031Q396.773 39.8359 396.773 40.6328Q396.773 42.4844 396.188 44.4063Q395.602 46.3281 394.523 48.1563Q393.445 49.9844 391.91 51.6602Q390.375 53.3359 388.5 54.6719Q387.234 55.5859 385.699 56.0898Q384.164 56.5938 382.266 56.5938Q380.461 56.5938 379.137 56.1133Q377.813 55.6328 376.934 54.7422Q376.055 53.8516 375.621 52.6094Q375.188 51.3672 375.188 49.8438Q375.188 48.3672 375.609 46.6797ZM446.93 66.2969Q447.211 66.4844 447.563 66.4844Q449.109 66.4844 450.504 65.9336Q451.898 65.3828 453.352 64.5156Q455.719 63.0391 457.43 61.668Q459.141 60.2969 460.383 58.9375Q461.625 57.5781 462.504 56.1484Q463.383 54.7188 464.086 53.1133Q464.789 51.5078 465.41 49.6563Q466.031 47.8047 466.805 45.6016L467.93 42.3438Q468.094 41.8984 468.387 40.9492Q468.68 40 468.961 38.957Q469.242 37.9141 469.453 36.9766Q469.664 36.0391 469.664 35.6172Q469.664 34.4922 468.996 33.8242Q468.328 33.1563 467.086 33.1563Q466.828 33.1563 466.547 33.2383Q466.266 33.3203 466.02 33.4375Q465.773 33.5547 465.598 33.7188Q465.422 33.8828 465.375 34.0469Q464.766 36.5547 464.027 38.6406Q463.289 40.7266 462.27 42.4727Q461.25 44.2188 459.832 45.6602Q458.414 47.1016 456.445 48.3203Q455.93 48.6484 455.473 48.7891Q455.016 48.9297 454.664 48.9297Q454.055 48.9297 453.633 48.1797Q453.211 47.4297 453.211 46.1641Q453.211 45.8594 453.293 45.2852Q453.375 44.7109 453.574 43.7383Q453.773 42.7656 454.125 41.3008Q454.477 39.8359 455.039 37.7266Q455.414 37.0469 455.613 36.4141Q455.813 35.7813 455.813 35.5703Q455.813 35.0313 455.613 34.3516Q455.414 33.6719 455.016 33.25Q454.734 32.9688 454.242 32.8867Q453.75 32.8047 453.258 32.8047Q452.906 32.8047 452.543 32.9453Q452.18 33.0859 451.863 33.3438Q451.547 33.6016 451.324 33.9531Q451.102 34.3047 451.055 34.7031Q451.031 34.7734 451.02 35.0781Q451.008 35.3828 450.961 35.7109Q450.914 36.1094 450.891 36.5547Q450.492 38.2656 450.176 39.6836Q449.859 41.1016 449.625 42.3906Q449.391 43.6797 449.273 44.875Q449.156 46.0703 449.156 47.3359Q449.156 48.1094 449.297 48.8594Q449.438 49.6094 449.695 50.0781Q450.633 51.7188 451.734 52.4336Q452.836 53.1484 454.406 53.1484Q454.992 53.1484 455.66 52.8672Q456.328 52.5859 457.031 52.1055Q457.734 51.625 458.438 51.0273Q459.141 50.4297 459.797 49.7852Q460.453 49.1406 461.027 48.5195Q461.602 47.8984 462.047 47.4063Q461.438 49.8438 460.5 51.7305Q459.563 53.6172 458.484 55.082Q457.406 56.5469 456.246 57.6367Q455.086 58.7266 454.031 59.5469Q452.977 60.3672 451.98 60.8711Q450.984 61.375 450.105 61.6914Q449.227 62.0078 448.477 62.1719Q447.727 62.3359 447.164 62.4766Q447 62.5469 446.801 62.6875Q446.602 62.8281 446.426 63.0742Q446.25 63.3203 446.133 63.6484Q446.016 63.9766 446.016 64.4219Q446.016 64.7734 446.133 65.1367Q446.25 65.5 446.449 65.8047Q446.648 66.1094 446.93 66.2969ZM428.438 49.6328Q428.836 47.6641 429.258 45.6484Q429.68 43.6328 430.078 41.6875Q430.477 39.7422 430.758 38.125Q430.734 37.8906 430.734 37.7148L430.734 37.3281Q430.734 36.6016 430.828 35.875Q430.922 35.1484 431.086 34.5391Q431.344 33.6484 431.66 33.332Q431.977 33.0156 432.68 33.0156Q433.359 33.0156 433.77 33.2852Q434.18 33.5547 434.414 34Q434.648 34.4453 434.719 35.0195Q434.789 35.5938 434.789 36.2031Q434.789 36.5313 434.766 36.9297Q434.742 37.3281 434.742 37.5625Q435.398 36.8828 436.137 36.168Q436.875 35.4531 437.707 34.8789Q438.539 34.3047 439.465 33.9297Q440.391 33.5547 441.398 33.5547Q441.797 33.5547 442.184 33.625Q442.57 33.6953 442.969 33.8125Q443.438 33.9297 443.941 34.1289Q444.445 34.3281 444.914 34.6797Q445.688 35.2656 446.215 36.1445Q446.742 37.0234 446.742 37.9375Q446.742 38.2891 446.602 38.6992Q446.461 39.1094 446.215 39.4492Q445.969 39.7891 445.641 40.0117Q445.313 40.2344 444.914 40.2344Q444.516 40.2344 443.941 40.0352Q443.367 39.8359 442.992 39.5078Q442.828 39.3672 442.652 39.1094Q442.477 38.8516 442.324 38.5938Q442.172 38.3359 442.043 38.1133Q441.914 37.8906 441.844 37.8203Q441.727 37.7969 441.586 37.7852Q441.445 37.7734 441.328 37.7734Q440.133 37.7734 439.055 38.3828Q437.977 38.9922 437.039 39.8711Q436.102 40.75 435.316 41.7461Q434.531 42.7422 433.945 43.5391Q433.477 45.4375 432.902 47.582Q432.328 49.7266 431.766 52.0703L431.766 52.6563Q431.766 53.3594 431.719 54.0859Q431.672 54.8125 431.438 55.375Q431.18 55.7266 430.699 55.9727Q430.219 56.2188 429.586 56.2188Q428.602 56.2188 428.109 55.5742Q427.617 54.9297 427.617 54.0625Q427.617 53.6641 427.734 53.2422Q428.039 51.6016 428.438 49.6328ZM331.172 53.0195Q331.008 53.9688 331.008 54.6484Q331.008 54.9766 331.078 55.2227Q331.148 55.4688 331.383 55.6445Q331.617 55.8203 332.051 55.9141Q332.484 56.0078 333.211 56.0078Q333.773 56.0078 334.125 55.7969Q334.477 55.5859 334.711 55.293Q334.945 55 335.051 54.6836L335.227 54.1563Q335.438 53.4297 335.508 52.5859Q335.578 51.7422 335.672 50.7344L338.766 38.3828Q338.953 37.8203 339.141 37.2695Q339.328 36.7188 339.328 36.1094Q339.328 35.6641 339.199 35.2539Q339.07 34.8438 338.789 34.5273Q338.508 34.2109 338.039 34.0234Q337.57 33.8359 336.867 33.8359Q336.492 33.8359 336.152 33.8828Q335.813 33.9297 335.273 34.0469Q334.734 33.9766 334.066 33.9063Q333.398 33.8359 332.859 33.8359Q331.641 33.8359 330.398 34.082Q329.156 34.3281 327.914 35.1953Q324.703 37.4219 322.535 40.5742Q320.367 43.7266 319.477 47.4297Q319.266 48.25 319.16 48.8828Q319.055 49.5156 319.055 50.1016Q319.055 51.4141 319.605 52.3984Q320.156 53.3828 321.398 54.3672Q321.844 54.7188 322.477 54.9297Q323.109 55.1406 323.813 55.1406Q324.68 55.1406 325.676 54.6602Q326.672 54.1797 327.68 53.4766Q328.688 52.7734 329.625 52Q330.563 51.2266 331.336 50.6641Q331.336 52.0703 331.172 53.0195ZM48.6563 46.6094Q48.6563 45.6016 49.1953 44.8984Q49.7344 44.1953 50.625 43.9609Q50.8828 43.4453 51.4219 42.5664Q51.9609 41.6875 52.7578 40.6563Q53.5547 39.625 54.5742 38.582Q55.5938 37.5391 56.8242 36.6836Q58.0547 35.8281 59.4727 35.2891Q60.8906 34.75 62.4844 34.75Q63.8438 34.75 64.8516 35.0781Q65.8594 35.4063 66.5156 35.9922Q67.1719 36.5781 67.5 37.3867Q67.8281 38.1953 67.8281 39.1328Q67.8281 39.9297 67.6172 40.6563Q67.2891 41.9688 66.3984 42.9531Q65.5078 43.9375 64.3008 44.6758Q63.0938 45.4141 61.6758 45.9063Q60.2578 46.3984 58.8398 46.7266Q57.4219 47.0547 56.1094 47.2305Q54.7969 47.4063 53.8359 47.5Q53.625 47.9219 53.4727 48.5664Q53.3203 49.2109 53.3203 49.8203Q53.3203 51.1797 54.3984 51.9297Q55.4766 52.6797 57.375 52.6797Q58.4766 52.6797 59.4844 52.4336Q60.4922 52.1875 61.3945 51.8008Q62.2969 51.4141 63.0938 50.957Q63.8906 50.5 64.5469 50.0547Q65.3906 49.4922 66.1523 49.1055Q66.9141 48.7188 67.5 48.7188Q68.0859 48.7188 68.25 49.0117Q68.4141 49.3047 68.4141 49.6328Q68.4141 49.8203 68.4023 49.9961Q68.3906 50.1719 68.3672 50.2891Q68.25 50.8984 67.8984 51.5078Q67.5469 52.1172 67.0078 52.5625Q64.5703 54.4844 62.0039 55.3047Q59.4375 56.125 56.5313 56.125Q55.9688 56.125 55.207 56.0547Q54.4453 55.9844 53.625 55.7734Q52.8047 55.5625 52.0078 55.1641Q51.2109 54.7656 50.5898 54.1094Q49.9688 53.4531 49.582 52.4922Q49.1953 51.5313 49.1953 50.1719Q49.1953 49.0703 49.5 47.7109Q49.1953 47.6641 48.9258 47.3945Q48.6563 47.125 48.6563 46.6094ZM172.008 44.8984Q171.469 45.6016 171.469 46.6094Q171.469 47.125 171.738 47.3945Q172.008 47.6641 172.313 47.7109Q172.008 49.0703 172.008 50.1719Q172.008 51.5313 172.395 52.4922Q172.781 53.4531 173.402 54.1094Q174.023 54.7656 174.82 55.1641Q175.617 55.5625 176.438 55.7734Q177.258 55.9844 178.02 56.0547Q178.781 56.125 179.344 56.125Q182.25 56.125 184.816 55.3047Q187.383 54.4844 189.82 52.5625Q190.359 52.1172 190.711 51.5078Q191.063 50.8984 191.18 50.2891Q191.203 50.1719 191.215 49.9961Q191.227 49.8203 191.227 49.6328Q191.227 49.3047 191.063 49.0117Q190.898 48.7188 190.313 48.7188Q189.727 48.7188 188.965 49.1055Q188.203 49.4922 187.359 50.0547Q186.703 50.5 185.906 50.957Q185.109 51.4141 184.207 51.8008Q183.305 52.1875 182.297 52.4336Q181.289 52.6797 180.188 52.6797Q178.289 52.6797 177.211 51.9297Q176.133 51.1797 176.133 49.8203Q176.133 49.2109 176.285 48.5664Q176.438 47.9219 176.648 47.5Q177.609 47.4063 178.922 47.2305Q180.234 47.0547 181.652 46.7266Q183.07 46.3984 184.488 45.9063Q185.906 45.4141 187.113 44.6758Q188.32 43.9375 189.211 42.9531Q190.102 41.9688 190.43 40.6563Q190.641 39.9297 190.641 39.1328Q190.641 38.1953 190.313 37.3867Q189.984 36.5781 189.328 35.9922Q188.672 35.4063 187.664 35.0781Q186.656 34.75 185.297 34.75Q183.703 34.75 182.285 35.2891Q180.867 35.8281 179.637 36.6836Q178.406 37.5391 177.387 38.582Q176.367 39.625 175.57 40.6563Q174.773 41.6875 174.234 42.5664Q173.695 43.4453 173.438 43.9609Q172.547 44.1953 172.008 44.8984ZM109.113 48.0039Q109.172 47.5234 109.313 46.9844Q109.477 46.2813 109.887 45.4375Q110.297 44.5938 110.848 43.7148Q111.398 42.8359 112.09 41.9922Q112.781 41.1484 113.543 40.4219Q114.305 39.6953 115.102 39.1563Q115.898 38.6172 116.672 38.3594Q117.844 38.2422 118.57 38.0781Q119.297 37.9141 119.719 37.7148Q120.141 37.5156 120.352 37.2695Q120.563 37.0234 120.75 36.6953Q120.914 37.1172 121.125 37.5508Q121.336 37.9844 121.547 38.3828Q121.898 39.0391 122.121 39.5664Q122.344 40.0938 122.344 40.7031Q122.344 41.3125 122.191 42.0391Q122.039 42.7656 121.828 43.5859Q121.5 44.8984 120.691 46.457Q119.883 48.0156 118.688 49.375Q117.492 50.7344 115.957 51.6367Q114.422 52.5391 112.641 52.5391Q111.68 52.5391 111.012 52.2695Q110.344 52 109.898 51.5195Q109.453 51.0391 109.254 50.3711Q109.055 49.7031 109.055 48.9297Q109.055 48.4844 109.113 48.0039ZM248.215 48.0039Q248.273 47.5234 248.414 46.9844Q248.578 46.2813 248.988 45.4375Q249.398 44.5938 249.949 43.7148Q250.5 42.8359 251.191 41.9922Q251.883 41.1484 252.645 40.4219Q253.406 39.6953 254.203 39.1563Q255 38.6172 255.773 38.3594Q256.945 38.2422 257.672 38.0781Q258.398 37.9141 258.82 37.7148Q259.242 37.5156 259.453 37.2695Q259.664 37.0234 259.852 36.6953Q260.016 37.1172 260.227 37.5508Q260.438 37.9844 260.648 38.3828Q261 39.0391 261.223 39.5664Q261.445 40.0938 261.445 40.7031Q261.445 41.3125 261.293 42.0391Q261.141 42.7656 260.93 43.5859Q260.602 44.8984 259.793 46.457Q258.984 48.0156 257.789 49.375Q256.594 50.7344 255.059 51.6367Q253.523 52.5391 251.742 52.5391Q250.781 52.5391 250.113 52.2695Q249.445 52 249 51.5195Q248.555 51.0391 248.355 50.3711Q248.156 49.7031 248.156 48.9297Q248.156 48.4844 248.215 48.0039ZM379.5 46.9844Q379.359 47.5234 379.301 48.0039Q379.242 48.4844 379.242 48.9297Q379.242 49.7031 379.441 50.3711Q379.641 51.0391 380.086 51.5195Q380.531 52 381.199 52.2695Q381.867 52.5391 382.828 52.5391Q384.609 52.5391 386.145 51.6367Q387.68 50.7344 388.875 49.375Q390.07 48.0156 390.879 46.457Q391.688 44.8984 392.016 43.5859Q392.227 42.7656 392.379 42.0391Q392.531 41.3125 392.531 40.7031Q392.531 40.0938 392.309 39.5664Q392.086 39.0391 391.734 38.3828Q391.523 37.9844 391.313 37.5508Q391.102 37.1172 390.938 36.6953Q390.75 37.0234 390.539 37.2695Q390.328 37.5156 389.906 37.7148Q389.484 37.9141 388.758 38.0781Q388.031 38.2422 386.859 38.3594Q386.086 38.6172 385.289 39.1563Q384.492 39.6953 383.73 40.4219Q382.969 41.1484 382.277 41.9922Q381.586 42.8359 381.035 43.7148Q380.484 44.5938 380.074 45.4375Q379.664 46.2813 379.5 46.9844ZM323.027 48.5078Q323.133 47.8984 323.227 47.5703Q323.531 46.3984 324.105 45.168Q324.68 43.9375 325.477 42.7773Q326.273 41.6172 327.246 40.5977Q328.219 39.5781 329.297 38.8281Q330.375 38.0781 331.535 37.6328Q332.695 37.1875 333.844 37.1875Q334.242 37.1875 334.383 37.4805Q334.523 37.7734 334.523 38.0781Q334.523 38.7813 334.395 39.6719Q334.266 40.5625 334.078 41.2422Q333.75 42.4141 333.035 43.5977Q332.32 44.7813 331.395 45.9063Q330.469 47.0313 329.426 48.0508Q328.383 49.0703 327.375 49.8906Q326.625 50.5 325.77 50.9336Q324.914 51.3672 323.93 51.3672Q323.297 51.3672 323.109 50.8633Q322.922 50.3594 322.922 49.7266Q322.922 49.1172 323.027 48.5078ZM63.3281 40.1172Q63.375 40 63.375 39.9063L63.375 39.6953Q63.375 39.0625 62.9063 38.7461Q62.4375 38.4297 61.7813 38.4297Q60.75 38.4297 59.7539 38.9688Q58.7578 39.5078 57.8789 40.3164Q57 41.125 56.3203 42.0508Q55.6406 42.9766 55.2656 43.7266Q56.9531 43.5859 58.3594 43.2695Q59.7656 42.9531 60.8086 42.4727Q61.8516 41.9922 62.4961 41.3945Q63.1406 40.7969 63.3281 40.1172ZM186.188 39.9063Q186.188 40 186.141 40.1172Q185.953 40.7969 185.309 41.3945Q184.664 41.9922 183.621 42.4727Q182.578 42.9531 181.172 43.2695Q179.766 43.5859 178.078 43.7266Q178.453 42.9766 179.133 42.0508Q179.813 41.125 180.691 40.3164Q181.57 39.5078 182.566 38.9688Q183.563 38.4297 184.594 38.4297Q185.25 38.4297 185.719 38.7461Q186.188 39.0625 186.188 39.6953L186.188 39.9063Z" />
  </g>
</svg>